<svg xmlns="http://www.w3.org/2000/svg" xmlns:xlink="http://www.w3.org/1999/xlink" xmlns:lucid="lucid" width="2317" height="1063.5"><g transform="translate(741 261.5)" lucid:page-tab-id="0_0"><path d="M-153 238.5H7v121h-160z" stroke="#333" stroke-width="2" fill="#fff"/><use xlink:href="#a" transform="matrix(1,0,0,1,-145,246.5) translate(38.55 56.1)"/><path d="M153-240.5h160v121H153z" stroke="#333" stroke-width="2" fill="#fff"/><use xlink:href="#b" transform="matrix(1,0,0,1,161,-232.5) translate(51.5 56.1)"/><path d="M153-20.5h160v121H153z" stroke="#333" stroke-width="2" fill="#fff"/><use xlink:href="#c" transform="matrix(1,0,0,1,161,-12.5) translate(30.549999999999997 56.1)"/><path d="M233-118v66.13" stroke="#333" fill="none"/><path d="M233.5-118h-1v-.5h1z" stroke="#333" stroke-width=".05" fill="#333"/><path d="M233-22.2l-14.85-14.86L233-52.2l14.85 15.14z" stroke="#333" fill="#333"/><path d="M553 199.5h160v121H553z" stroke="#333" stroke-width="2" fill="#f2f3f5"/><use xlink:href="#d" transform="matrix(1,0,0,1,561,207.5) translate(29.700000000000003 56.1)"/><path d="M1153 199.5h160v121h-160z" stroke="#333" stroke-width="2" fill="#fff"/><use xlink:href="#e" transform="matrix(1,0,0,1,1161,207.5) translate(43.074999999999996 56.1)"/><path d="M-360 238h160v121h-160z" stroke="#333" stroke-width="2" fill="#fff"/><use xlink:href="#f" transform="matrix(1,0,0,1,-352,246) translate(30.049999999999997 56.1)"/><path d="M-580 238h160v121h-160z" stroke="#333" stroke-width="2" fill="#fff"/><use xlink:href="#g" transform="matrix(1,0,0,1,-572,246) translate(46 56.1)"/><path d="M673 419.5h160v121H673z" stroke="#333" stroke-width="2" fill="#f2f3f5"/><use xlink:href="#h" transform="matrix(1,0,0,1,681,427.5) translate(27.549999999999997 56.1)"/><path d="M403 419.5h160v121H403z" stroke="#333" stroke-width="2" fill="#f2f3f5"/><use xlink:href="#i" transform="matrix(1,0,0,1,411,427.5) translate(39.75 56.1)"/><path d="M633 322v36a12 12 0 0 1-12 12H495a12 12 0 0 0-12 12v20.12" stroke="#333" fill="none"/><path d="M633.5 322h-1v-.5h1z" stroke="#333" stroke-width=".05" fill="#333"/><path d="M483 416.88l-4.63-14.26h9.26z" stroke="#333" fill="#333"/><path d="M633 322v36a12 12 0 0 0 12 12h96a12 12 0 0 1 12 12v20.12" stroke="#333" fill="none"/><path d="M633.5 322h-1v-.5h1z" stroke="#333" stroke-width=".05" fill="#333"/><path d="M753 416.88l-4.63-14.26h9.26z" stroke="#333" fill="#333"/><path d="M403 620h160v121H403z" stroke="#6db1ff" stroke-width="2" fill="#f2f3f5"/><use xlink:href="#j" transform="matrix(1,0,0,1,411,628) translate(37.574999999999996 56.1)"/><path d="M483 542v60.62" stroke="#333" fill="none"/><path d="M483.5 542h-1v-.5h1z" stroke="#333" stroke-width=".05" fill="#333"/><path d="M483 617.38l-4.63-14.26h9.26z" stroke="#333" fill="#333"/><path d="M933 419.5h160v121H933z" stroke="#333" stroke-width="2" fill="#fff"/><use xlink:href="#k" transform="matrix(1,0,0,1,941,427.5) translate(67 56.1)"/><path d="M1153 419.5h160v121h-160z" stroke="#333" stroke-width="2" fill="#fff"/><use xlink:href="#l" transform="matrix(1,0,0,1,1161,427.5) translate(49.575 56.1)"/><path d="M1373 419.5h160v121h-160z" stroke="#333" stroke-width="2" fill="#fff"/><use xlink:href="#m" transform="matrix(1,0,0,1,1381,427.5) translate(58.55 56.1)"/><path d="M931.5 480h-81.12" stroke="#333" fill="none"/><path d="M932 480.5h-.5v-1h.5z" stroke="#333" stroke-width=".05" fill="#333"/><path d="M835.62 480l14.26-4.63v9.26z" stroke="#333" fill="#333"/><path d="M1013 542v27.5a12 12 0 0 1-12 12H366a12 12 0 0 1-12-12V-168a12 12 0 0 0-12-12h-11.62" stroke="#333" fill="none"/><path d="M1013.5 542h-1v-.5h1z" stroke="#333" stroke-width=".05" fill="#333"/><path d="M315.62-180l14.26-4.63v9.26z" stroke="#333" fill="#333"/><path d="M1177.2 542v15.5a12 12 0 0 1-12 12H764.6a11.62 11.62 0 0 1-11.6-11.62" stroke="#333" fill="none"/><path d="M1177.7 542h-1v-.5h1z" stroke="#333" stroke-width=".05" fill="#333"/><path d="M753 543.12l4.63 14.26h-9.27z" stroke="#333" fill="#333"/><path d="M1405.75 542v65.5a12 12 0 0 1-12 12H763a12 12 0 0 1-12-12v-49.62" stroke="#333" fill="none"/><path d="M1406.25 542h-1v-.5h1z" stroke="#333" stroke-width=".05" fill="#333"/><path d="M751 543.12l4.65 14.26h-9.27z" stroke="#333" fill="#333"/><path d="M1013 418v-36a12 12 0 0 1 12-12h196a12 12 0 0 0 12-12v-13.5" stroke="#333" fill="none"/><path d="M1013.5 418.5h-1v-.5h1z" stroke="#333" stroke-width=".05" fill="#333"/><path d="M1233 322.48l12.73 21.52h-25.46z" stroke="#333" fill="#fff"/><path d="M1453 418v-36a12 12 0 0 0-12-12h-196a12 12 0 0 1-12-12v-13.5" stroke="#333" fill="none"/><path d="M1453.5 418.5h-1v-.5h1z" stroke="#333" stroke-width=".05" fill="#333"/><path d="M1233 322.48l12.73 21.52h-25.46z" stroke="#333" fill="#fff"/><path d="M1233 418v-73.5" stroke="#333" fill="none"/><path d="M1233.5 418.5h-1v-.5h1z" stroke="#333" stroke-width=".05" fill="#333"/><path d="M1233 322.48l12.73 21.52h-25.46z" stroke="#333" fill="#fff"/><path d="M-280 236.5v-55.25a12 12 0 0 1 12-12h489a12 12 0 0 0 12-12V124.5" stroke="#333" fill="none"/><path d="M-279.5 237h-1v-.5h1z" stroke="#333" stroke-width=".05" fill="#333"/><path d="M233 102.48L245.73 124h-25.46z" stroke="#333" fill="#fff"/><path d="M-500 236.5v-55.25a12 12 0 0 1 12-12h709a12 12 0 0 0 12-12V124.5" stroke="#333" fill="none"/><path d="M-499.5 237h-1v-.5h1z" stroke="#333" stroke-width=".05" fill="#333"/><path d="M233 102.48L245.73 124h-25.46z" stroke="#333" fill="#fff"/><path d="M-73 237v-55.5a12 12 0 0 1 12-12h285a12 12 0 0 0 12-12v-33" stroke="#333" fill="none"/><path d="M-72.5 237.5h-1v-.5h1z" stroke="#333" stroke-width=".05" fill="#333"/><path d="M236 102.48L248.73 124h-25.46z" stroke="#333" fill="#fff"/><path d="M633 198v-36a12 12 0 0 0-12-12H245a12 12 0 0 1-12-12v-13.5" stroke="#333" fill="none"/><path d="M633.5 198.5h-1v-.5h1z" stroke="#333" stroke-width=".05" fill="#333"/><path d="M233 102.48L245.73 124h-25.46z" stroke="#333" fill="#fff"/><path d="M1233 198v-56a12 12 0 0 0-12-12H238.5a5.5 5.5 0 0 1-5.5-5.5" stroke="#333" fill="none"/><path d="M1233.5 198.5h-1v-.5h1z" stroke="#333" stroke-width=".05" fill="#333"/><path d="M233 102.48L245.73 124h-25.46z" stroke="#333" fill="#fff"/><path d="M1534.5 480h27.5a12 12 0 0 0 12-12V52a12 12 0 0 0-12-12H330.38" stroke="#333" fill="none"/><path d="M1534.5 480.5h-.5v-1h.5z" stroke="#333" stroke-width=".05" fill="#333"/><path d="M315.62 40l14.26-4.63v9.27z" stroke="#333" fill="#333"/><path d="M-260 440h160v121h-160z" stroke="#333" stroke-width="2" fill="#fff"/><use xlink:href="#n" transform="matrix(1,0,0,1,-252,448) translate(8.074999999999996 56.1)"/><use xlink:href="#o" transform="matrix(1,0,0,1,-252,448) translate(57.025 56.1)"/><path d="M-340 660h160v121h-160z" stroke="#333" stroke-width="2" fill="#fff"/><use xlink:href="#p" transform="matrix(1,0,0,1,-332,668) translate(51.55 56.1)"/><path d="M-480 440h160v121h-160z" stroke="#333" stroke-width="2" fill="#fff"/><use xlink:href="#q" transform="matrix(1,0,0,1,-472,448) translate(37.05 56.1)"/><path d="M-60 440h160v121H-60z" stroke="#333" stroke-width="2" fill="#fff"/><use xlink:href="#r" transform="matrix(1,0,0,1,-52,448) translate(49.025 56.1)"/><path d="M-720 440h160v121h-160z" stroke="#333" stroke-width="2" fill="#fff"/><use xlink:href="#s" transform="matrix(1,0,0,1,-712,448) translate(52.4 56.1)"/><path d="M-500 361v32.5a6 6 0 0 1-6 6h-128a6 6 0 0 0-6 6v15" stroke="#5e5e5e" stroke-width="2" fill="none"/><path d="M-499 361.03h-2V360h2z" stroke="#5e5e5e" stroke-width=".05" fill="#5e5e5e"/><path d="M-640 435.76l-4.63-14.26h9.26z" stroke="#5e5e5e" stroke-width="2" fill="#5e5e5e"/><path d="M-500 361v32.5a6 6 0 0 0 6 6h88a6 6 0 0 1 6 6v15" stroke="#5e5e5e" stroke-width="2" fill="none"/><path d="M-499 361.03h-2V360h2z" stroke="#5e5e5e" stroke-width=".05" fill="#5e5e5e"/><path d="M-400 435.76l-4.63-14.26h9.26z" stroke="#5e5e5e" stroke-width="2" fill="#5e5e5e"/><path d="M-280 361v32.5a6 6 0 0 1-6 6h-108a6 6 0 0 0-6 6v15" stroke="#5e5e5e" stroke-width="2" fill="none"/><path d="M-279 361.03h-2V360h2z" stroke="#5e5e5e" stroke-width=".05" fill="#5e5e5e"/><path d="M-400 435.76l-4.63-14.26h9.26z" stroke="#5e5e5e" stroke-width="2" fill="#5e5e5e"/><path d="M-280 361v32.5a6 6 0 0 0 6 6h88a6 6 0 0 1 6 6v15" stroke="#5e5e5e" stroke-width="2" fill="none"/><path d="M-279 361.03h-2V360h2z" stroke="#5e5e5e" stroke-width=".05" fill="#5e5e5e"/><path d="M-180 435.76l-4.63-14.26h9.26z" stroke="#5e5e5e" stroke-width="2" fill="#5e5e5e"/><path d="M-73 361.5v32.25a6 6 0 0 0 6 6h81a6 6 0 0 1 6 6v14.75" stroke="#5e5e5e" stroke-width="2" fill="none"/><path d="M-72 361.53h-2v-1.03h2z" stroke="#5e5e5e" stroke-width=".05" fill="#5e5e5e"/><path d="M20 435.76l-4.63-14.26h9.27z" stroke="#5e5e5e" stroke-width="2" fill="#5e5e5e"/><path d="M-640 563v41.5a6 6 0 0 0 6 6h368a6 6 0 0 1 6 6v18.02" stroke="#5e5e5e" stroke-width="2" fill="none"/><path d="M-639 563.03h-2V562h2z" stroke="#5e5e5e" stroke-width=".05" fill="#5e5e5e"/><path d="M-260 657.04l-12.73-21.52h25.46z" stroke="#5e5e5e" stroke-width="2" fill="#fff"/><path d="M-400 563v41.5a6 6 0 0 0 6 6h128a6 6 0 0 1 6 6v18.02" stroke="#5e5e5e" stroke-width="2" fill="none"/><path d="M-399 563.03h-2V562h2z" stroke="#5e5e5e" stroke-width=".05" fill="#5e5e5e"/><path d="M-260 657.04l-12.73-21.52h25.46z" stroke="#5e5e5e" stroke-width="2" fill="#fff"/><path d="M-180 563v41.5a6 6 0 0 1-6 6h-68a6 6 0 0 0-6 6v18.02" stroke="#5e5e5e" stroke-width="2" fill="none"/><path d="M-179 563.03h-2V562h2z" stroke="#5e5e5e" stroke-width=".05" fill="#5e5e5e"/><path d="M-260 657.04l-12.73-21.52h25.46z" stroke="#5e5e5e" stroke-width="2" fill="#fff"/><path d="M20 563v41.5a6 6 0 0 1-6 6h-268a6 6 0 0 0-6 6v18.02" stroke="#5e5e5e" stroke-width="2" fill="none"/><path d="M21 563.03h-2V562h2z" stroke="#5e5e5e" stroke-width=".05" fill="#5e5e5e"/><path d="M-260 657.04l-12.73-21.52h25.46z" stroke="#5e5e5e" stroke-width="2" fill="#fff"/><defs><path fill="#333" d="M233-177c-1 41-23 64-60 70L243 0h-38l-65-103H63V0H30v-248c88 3 205-21 203 71zM63-129c60-2 137 13 137-47 0-61-80-42-137-45v92" id="t"/><path fill="#333" d="M100-194c62-1 85 37 85 99 1 63-27 99-86 99S16-35 15-95c0-66 28-99 85-99zM99-20c44 1 53-31 53-75 0-43-8-75-51-75s-53 32-53 75 10 74 51 75" id="u"/><path fill="#333" d="M59-47c-2 24 18 29 38 22v24C64 9 27 4 27-40v-127H5v-23h24l9-43h21v43h35v23H59v120" id="v"/><path fill="#333" d="M141-36C126-15 110 5 73 4 37 3 15-17 15-53c-1-64 63-63 125-63 3-35-9-54-41-54-24 1-41 7-42 31l-33-3c5-37 33-52 76-52 45 0 72 20 72 64v82c-1 20 7 32 28 27v20c-31 9-61-2-59-35zM48-53c0 20 12 33 32 33 41-3 63-29 60-74-43 2-92-5-92 41" id="w"/><path fill="#333" d="M24-231v-30h32v30H24zM24 0v-190h32V0H24" id="x"/><path fill="#333" d="M117-194c89-4 53 116 60 194h-32v-121c0-31-8-49-39-48C34-167 62-67 57 0H25l-1-190h30c1 10-1 24 2 32 11-22 29-35 61-36" id="y"/><g id="a"><use transform="matrix(0.05,0,0,0.05,0,0)" xlink:href="#t"/><use transform="matrix(0.05,0,0,0.05,12.950000000000001,0)" xlink:href="#u"/><use transform="matrix(0.05,0,0,0.05,22.950000000000003,0)" xlink:href="#v"/><use transform="matrix(0.05,0,0,0.05,27.950000000000003,0)" xlink:href="#w"/><use transform="matrix(0.05,0,0,0.05,37.95,0)" xlink:href="#v"/><use transform="matrix(0.05,0,0,0.05,42.95,0)" xlink:href="#x"/><use transform="matrix(0.05,0,0,0.05,46.900000000000006,0)" xlink:href="#u"/><use transform="matrix(0.05,0,0,0.05,56.900000000000006,0)" xlink:href="#y"/></g><path fill="#333" d="M160-131c35 5 61 23 61 61C221 17 115-2 30 0v-248c76 3 177-17 177 60 0 33-19 50-47 57zm-97-11c50-1 110 9 110-42 0-47-63-36-110-37v79zm0 115c55-2 124 14 124-45 0-56-70-42-124-44v89" id="z"/><path fill="#333" d="M85-194c31 0 48 13 60 33l-1-100h32l1 261h-30c-2-10 0-23-3-31C134-8 116 4 85 4 32 4 16-35 15-94c0-66 23-100 70-100zm9 24c-40 0-46 34-46 75 0 40 6 74 45 74 42 0 51-32 51-76 0-42-9-74-50-73" id="A"/><path fill="#333" d="M179-190L93 31C79 59 56 82 12 73V49c39 6 53-20 64-50L1-190h34L92-34l54-156h33" id="B"/><g id="b"><use transform="matrix(0.05,0,0,0.05,0,0)" xlink:href="#z"/><use transform="matrix(0.05,0,0,0.05,12,0)" xlink:href="#u"/><use transform="matrix(0.05,0,0,0.05,22,0)" xlink:href="#A"/><use transform="matrix(0.05,0,0,0.05,32,0)" xlink:href="#B"/></g><path fill="#333" d="M33 0v-248h34V0H33" id="C"/><path fill="#333" d="M135-143c-3-34-86-38-87 0 15 53 115 12 119 90S17 21 10-45l28-5c4 36 97 45 98 0-10-56-113-15-118-90-4-57 82-63 122-42 12 7 21 19 24 35" id="D"/><path fill="#333" d="M114-163C36-179 61-72 57 0H25l-1-190h30c1 12-1 29 2 39 6-27 23-49 58-41v29" id="E"/><path fill="#333" d="M84 4C-5 8 30-112 23-190h32v120c0 31 7 50 39 49 72-2 45-101 50-169h31l1 190h-30c-1-10 1-25-2-33-11 22-28 36-60 37" id="F"/><path fill="#333" d="M96-169c-40 0-48 33-48 73s9 75 48 75c24 0 41-14 43-38l32 2c-6 37-31 61-74 61-59 0-76-41-82-99-10-93 101-131 147-64 4 7 5 14 7 22l-32 3c-4-21-16-35-41-35" id="G"/><g id="c"><use transform="matrix(0.05,0,0,0.05,0,0)" xlink:href="#C"/><use transform="matrix(0.05,0,0,0.05,5,0)" xlink:href="#y"/><use transform="matrix(0.05,0,0,0.05,15,0)" xlink:href="#D"/><use transform="matrix(0.05,0,0,0.05,24,0)" xlink:href="#v"/><use transform="matrix(0.05,0,0,0.05,29,0)" xlink:href="#E"/><use transform="matrix(0.05,0,0,0.05,34.95,0)" xlink:href="#F"/><use transform="matrix(0.05,0,0,0.05,44.95,0)" xlink:href="#G"/><use transform="matrix(0.05,0,0,0.05,53.95,0)" xlink:href="#v"/><use transform="matrix(0.05,0,0,0.05,58.95,0)" xlink:href="#x"/><use transform="matrix(0.05,0,0,0.05,62.900000000000006,0)" xlink:href="#u"/><use transform="matrix(0.05,0,0,0.05,72.9,0)" xlink:href="#y"/></g><path fill="#333" d="M205 0l-28-72H64L36 0H1l101-248h38L239 0h-34zm-38-99l-47-123c-12 45-31 82-46 123h93" id="H"/><path fill="#333" d="M101-234c-31-9-42 10-38 44h38v23H63V0H32v-167H5v-23h27c-7-52 17-82 69-68v24" id="I"/><path fill="#333" d="M100-194c63 0 86 42 84 106H49c0 40 14 67 53 68 26 1 43-12 49-29l28 8c-11 28-37 45-77 45C44 4 14-33 15-96c1-61 26-98 85-98zm52 81c6-60-76-77-97-28-3 7-6 17-6 28h103" id="J"/><g id="d"><use transform="matrix(0.05,0,0,0.05,0,0)" xlink:href="#H"/><use transform="matrix(0.05,0,0,0.05,12,0)" xlink:href="#I"/><use transform="matrix(0.05,0,0,0.05,16.65,0)" xlink:href="#I"/><use transform="matrix(0.05,0,0,0.05,21.65,0)" xlink:href="#J"/><use transform="matrix(0.05,0,0,0.05,31.649999999999995,0)" xlink:href="#G"/><use transform="matrix(0.05,0,0,0.05,40.65,0)" xlink:href="#v"/><use transform="matrix(0.05,0,0,0.05,45.65,0)" xlink:href="#w"/><use transform="matrix(0.05,0,0,0.05,55.650000000000006,0)" xlink:href="#v"/><use transform="matrix(0.05,0,0,0.05,60.650000000000006,0)" xlink:href="#x"/><use transform="matrix(0.05,0,0,0.05,64.6,0)" xlink:href="#u"/><use transform="matrix(0.05,0,0,0.05,74.6,0)" xlink:href="#y"/></g><path fill="#333" d="M212-179c-10-28-35-45-73-45-59 0-87 40-87 99 0 60 29 101 89 101 43 0 62-24 78-52l27 14C228-24 195 4 139 4 59 4 22-46 18-125c-6-104 99-153 187-111 19 9 31 26 39 46" id="K"/><path fill="#333" d="M24 0v-261h32V0H24" id="L"/><g id="e"><use transform="matrix(0.05,0,0,0.05,0,0)" xlink:href="#K"/><use transform="matrix(0.05,0,0,0.05,12.950000000000001,0)" xlink:href="#u"/><use transform="matrix(0.05,0,0,0.05,22.950000000000003,0)" xlink:href="#y"/><use transform="matrix(0.05,0,0,0.05,32.95,0)" xlink:href="#v"/><use transform="matrix(0.05,0,0,0.05,37.95,0)" xlink:href="#E"/><use transform="matrix(0.05,0,0,0.05,43.900000000000006,0)" xlink:href="#u"/><use transform="matrix(0.05,0,0,0.05,53.900000000000006,0)" xlink:href="#L"/></g><path fill="#333" d="M240 0l2-218c-23 76-54 145-80 218h-23L58-218 59 0H30v-248h44l77 211c21-75 51-140 76-211h43V0h-30" id="M"/><path fill="#333" d="M108 0H70L1-190h34L89-25l56-165h34" id="N"/><path fill="#333" d="M210-169c-67 3-38 105-44 169h-31v-121c0-29-5-50-35-48C34-165 62-65 56 0H25l-1-190h30c1 10-1 24 2 32 10-44 99-50 107 0 11-21 27-35 58-36 85-2 47 119 55 194h-31v-121c0-29-5-49-35-48" id="O"/><g id="f"><use transform="matrix(0.05,0,0,0.05,0,0)" xlink:href="#M"/><use transform="matrix(0.05,0,0,0.05,14.950000000000001,0)" xlink:href="#u"/><use transform="matrix(0.05,0,0,0.05,24.950000000000003,0)" xlink:href="#N"/><use transform="matrix(0.05,0,0,0.05,33.95,0)" xlink:href="#J"/><use transform="matrix(0.05,0,0,0.05,43.95,0)" xlink:href="#O"/><use transform="matrix(0.05,0,0,0.05,58.900000000000006,0)" xlink:href="#J"/><use transform="matrix(0.05,0,0,0.05,68.9,0)" xlink:href="#y"/><use transform="matrix(0.05,0,0,0.05,78.9,0)" xlink:href="#v"/></g><path fill="#333" d="M185-189c-5-48-123-54-124 2 14 75 158 14 163 119 3 78-121 87-175 55-17-10-28-26-33-46l33-7c5 56 141 63 141-1 0-78-155-14-162-118-5-82 145-84 179-34 5 7 8 16 11 25" id="P"/><path fill="#333" d="M115-194c55 1 70 41 70 98S169 2 115 4C84 4 66-9 55-30l1 105H24l-1-265h31l2 30c10-21 28-34 59-34zm-8 174c40 0 45-34 45-75s-6-73-45-74c-42 0-51 32-51 76 0 43 10 73 51 73" id="Q"/><g id="g"><use transform="matrix(0.05,0,0,0.05,0,0)" xlink:href="#P"/><use transform="matrix(0.05,0,0,0.05,12,0)" xlink:href="#Q"/><use transform="matrix(0.05,0,0,0.05,22,0)" xlink:href="#J"/><use transform="matrix(0.05,0,0,0.05,32,0)" xlink:href="#J"/><use transform="matrix(0.05,0,0,0.05,42,0)" xlink:href="#A"/></g><path fill="#333" d="M30 0v-248h187v28H63v79h144v27H63v87h162V0H30" id="R"/><path fill="#333" d="M141 0L90-78 38 0H4l68-98-65-92h35l48 74 47-74h35l-64 92 68 98h-35" id="S"/><g id="h"><use transform="matrix(0.05,0,0,0.05,0,0)" xlink:href="#R"/><use transform="matrix(0.05,0,0,0.05,12,0)" xlink:href="#S"/><use transform="matrix(0.05,0,0,0.05,21,0)" xlink:href="#Q"/><use transform="matrix(0.05,0,0,0.05,31,0)" xlink:href="#E"/><use transform="matrix(0.05,0,0,0.05,36.95,0)" xlink:href="#J"/><use transform="matrix(0.05,0,0,0.05,46.95,0)" xlink:href="#D"/><use transform="matrix(0.05,0,0,0.05,55.95,0)" xlink:href="#D"/><use transform="matrix(0.05,0,0,0.05,64.95,0)" xlink:href="#x"/><use transform="matrix(0.05,0,0,0.05,68.9,0)" xlink:href="#u"/><use transform="matrix(0.05,0,0,0.05,78.9,0)" xlink:href="#y"/></g><path fill="#333" d="M137 0h-34L2-248h35l83 218 83-218h36" id="T"/><path fill="#333" d="M115-194c53 0 69 39 70 98 0 66-23 100-70 100C84 3 66-7 56-30L54 0H23l1-261h32v101c10-23 28-34 59-34zm-8 174c40 0 45-34 45-75 0-40-5-75-45-74-42 0-51 32-51 76 0 43 10 73 51 73" id="U"/><g id="i"><use transform="matrix(0.05,0,0,0.05,0,0)" xlink:href="#T"/><use transform="matrix(0.05,0,0,0.05,10.65,0)" xlink:href="#w"/><use transform="matrix(0.05,0,0,0.05,20.65,0)" xlink:href="#E"/><use transform="matrix(0.05,0,0,0.05,26.599999999999994,0)" xlink:href="#x"/><use transform="matrix(0.05,0,0,0.05,30.549999999999997,0)" xlink:href="#w"/><use transform="matrix(0.05,0,0,0.05,40.55,0)" xlink:href="#U"/><use transform="matrix(0.05,0,0,0.05,50.55,0)" xlink:href="#L"/><use transform="matrix(0.05,0,0,0.05,54.5,0)" xlink:href="#J"/></g><g id="j"><use transform="matrix(0.05,0,0,0.05,0,0)" xlink:href="#C"/><use transform="matrix(0.05,0,0,0.05,5,0)" xlink:href="#A"/><use transform="matrix(0.05,0,0,0.05,15,0)" xlink:href="#J"/><use transform="matrix(0.05,0,0,0.05,25,0)" xlink:href="#y"/><use transform="matrix(0.05,0,0,0.05,35,0)" xlink:href="#v"/><use transform="matrix(0.05,0,0,0.05,40,0)" xlink:href="#x"/><use transform="matrix(0.05,0,0,0.05,43.95,0)" xlink:href="#I"/><use transform="matrix(0.05,0,0,0.05,48.95,0)" xlink:href="#x"/><use transform="matrix(0.05,0,0,0.05,52.900000000000006,0)" xlink:href="#J"/><use transform="matrix(0.05,0,0,0.05,62.900000000000006,0)" xlink:href="#E"/></g><g id="k"><use transform="matrix(0.05,0,0,0.05,0,0)" xlink:href="#C"/><use transform="matrix(0.05,0,0,0.05,5,0)" xlink:href="#I"/></g><path fill="#333" d="M266 0h-40l-56-210L115 0H75L2-248h35L96-30l15-64 43-154h32l59 218 59-218h35" id="V"/><path fill="#333" d="M106-169C34-169 62-67 57 0H25v-261h32l-1 103c12-21 28-36 61-36 89 0 53 116 60 194h-32v-121c2-32-8-49-39-48" id="W"/><g id="l"><use transform="matrix(0.05,0,0,0.05,0,0)" xlink:href="#V"/><use transform="matrix(0.05,0,0,0.05,16.95,0)" xlink:href="#W"/><use transform="matrix(0.05,0,0,0.05,26.950000000000003,0)" xlink:href="#x"/><use transform="matrix(0.05,0,0,0.05,30.899999999999995,0)" xlink:href="#L"/><use transform="matrix(0.05,0,0,0.05,34.85,0)" xlink:href="#J"/></g><path fill="#333" d="M63-220v92h138v28H63V0H30v-248h175v28H63" id="X"/><g id="m"><use transform="matrix(0.05,0,0,0.05,0,0)" xlink:href="#X"/><use transform="matrix(0.05,0,0,0.05,10.950000000000001,0)" xlink:href="#u"/><use transform="matrix(0.05,0,0,0.05,20.950000000000003,0)" xlink:href="#E"/></g><g id="n"><use transform="matrix(0.05,0,0,0.05,0,0)" xlink:href="#M"/><use transform="matrix(0.05,0,0,0.05,14.950000000000001,0)" xlink:href="#u"/><use transform="matrix(0.05,0,0,0.05,24.950000000000003,0)" xlink:href="#N"/><use transform="matrix(0.05,0,0,0.05,33.95,0)" xlink:href="#J"/></g><path fill="#333" d="M140-251c81 0 123 46 123 126C263-46 219 4 140 4 59 4 17-45 17-125s42-126 123-126zm0 227c63 0 89-41 89-101s-29-99-89-99c-61 0-89 39-89 99S79-25 140-24" id="Y"/><g id="o"><use transform="matrix(0.05,0,0,0.05,0,0)" xlink:href="#Y"/><use transform="matrix(0.05,0,0,0.05,14,0)" xlink:href="#Q"/><use transform="matrix(0.05,0,0,0.05,24,0)" xlink:href="#J"/><use transform="matrix(0.05,0,0,0.05,34,0)" xlink:href="#E"/><use transform="matrix(0.05,0,0,0.05,39.95,0)" xlink:href="#w"/><use transform="matrix(0.05,0,0,0.05,49.95,0)" xlink:href="#v"/><use transform="matrix(0.05,0,0,0.05,54.95,0)" xlink:href="#x"/><use transform="matrix(0.05,0,0,0.05,58.900000000000006,0)" xlink:href="#u"/><use transform="matrix(0.05,0,0,0.05,68.9,0)" xlink:href="#y"/></g><path fill="#333" d="M232-93c-1 65-40 97-104 97C67 4 28-28 28-90v-158h33c8 89-33 224 67 224 102 0 64-133 71-224h33v155" id="Z"/><g id="p"><use transform="matrix(0.05,0,0,0.05,0,0)" xlink:href="#Z"/><use transform="matrix(0.05,0,0,0.05,12.950000000000001,0)" xlink:href="#y"/><use transform="matrix(0.05,0,0,0.05,22.950000000000003,0)" xlink:href="#x"/><use transform="matrix(0.05,0,0,0.05,26.900000000000002,0)" xlink:href="#v"/><use transform="matrix(0.05,0,0,0.05,31.900000000000002,0)" xlink:href="#D"/></g><path fill="#333" d="M30-248c118-7 216 8 213 122C240-48 200 0 122 0H30v-248zM63-27c89 8 146-16 146-99s-60-101-146-95v194" id="aa"/><g id="q"><use transform="matrix(0.05,0,0,0.05,0,0)" xlink:href="#aa"/><use transform="matrix(0.05,0,0,0.05,12.950000000000001,0)" xlink:href="#x"/><use transform="matrix(0.05,0,0,0.05,16.900000000000002,0)" xlink:href="#D"/><use transform="matrix(0.05,0,0,0.05,25.900000000000002,0)" xlink:href="#v"/><use transform="matrix(0.05,0,0,0.05,30.900000000000002,0)" xlink:href="#w"/><use transform="matrix(0.05,0,0,0.05,40.900000000000006,0)" xlink:href="#y"/><use transform="matrix(0.05,0,0,0.05,50.900000000000006,0)" xlink:href="#G"/><use transform="matrix(0.05,0,0,0.05,59.900000000000006,0)" xlink:href="#J"/></g><path fill="#333" d="M177-190C167-65 218 103 67 71c-23-6-38-20-44-43l32-5c15 47 100 32 89-28v-30C133-14 115 1 83 1 29 1 15-40 15-95c0-56 16-97 71-98 29-1 48 16 59 35 1-10 0-23 2-32h30zM94-22c36 0 50-32 50-73 0-42-14-75-50-75-39 0-46 34-46 75s6 73 46 73" id="ab"/><g id="r"><use transform="matrix(0.05,0,0,0.05,0,0)" xlink:href="#H"/><use transform="matrix(0.05,0,0,0.05,12,0)" xlink:href="#y"/><use transform="matrix(0.05,0,0,0.05,22,0)" xlink:href="#ab"/><use transform="matrix(0.05,0,0,0.05,32,0)" xlink:href="#L"/><use transform="matrix(0.05,0,0,0.05,35.95,0)" xlink:href="#J"/></g><path fill="#333" d="M127-220V0H93v-220H8v-28h204v28h-85" id="ac"/><g id="s"><use transform="matrix(0.05,0,0,0.05,0,0)" xlink:href="#ac"/><use transform="matrix(0.05,0,0,0.05,10.3,0)" xlink:href="#x"/><use transform="matrix(0.05,0,0,0.05,14.25,0)" xlink:href="#O"/><use transform="matrix(0.05,0,0,0.05,29.200000000000003,0)" xlink:href="#J"/></g></defs></g></svg>