<svg xmlns="http://www.w3.org/2000/svg" xmlns:xlink="http://www.w3.org/1999/xlink" xmlns:lucid="lucid" width="1522" height="1041"><g transform="translate(-2579 -2419)" lucid:page-tab-id="HWEp-vi-RSFO"><path d="M3260 2640h160v121h-160z" stroke="#333" stroke-width="2" fill="#fff"/><use xlink:href="#a" transform="matrix(1,0,0,1,3268,2648) translate(19.599999999999994 56.1)"/><path d="M3520 2640h160v121h-160z" stroke="#333" stroke-width="2" fill="#fff"/><use xlink:href="#b" transform="matrix(1,0,0,1,3528,2648) translate(33.05 56.1)"/><path d="M3421.5 2700.5h67.13" stroke="#333" fill="none"/><path d="M3421.5 2701h-.5v-1h.5z" stroke="#333" stroke-width=".05" fill="#333"/><path d="M3518.3 2700.5l-14.86 14.85-15.15-14.85 15.14-14.85z" stroke="#333" fill="#333"/><path d="M3740 2540h160v121h-160z" stroke="#54c45e" stroke-width="2" fill="#fff"/><use xlink:href="#c" transform="matrix(1,0,0,1,3748,2548) translate(52.525 56.1)"/><path d="M3681.5 2700.5h16.5a12 12 0 0 0 12-12v-76a12 12 0 0 1 12-12h.62" stroke="#333" fill="none"/><path d="M3681.5 2701h-.5v-1h.5z" stroke="#333" stroke-width=".05" fill="#333"/><path d="M3737.38 2600.5l-14.26 4.64v-9.28z" stroke="#333" fill="#333"/><path d="M3440 3318h160v121h-160z" stroke="#333" stroke-width="2" fill="#fff"/><use xlink:href="#d" transform="matrix(1,0,0,1,3448,3326) translate(30.049999999999997 56.1)"/><path d="M3260 2878h160v121h-160z" stroke="#333" stroke-width="2" fill="#fff"/><use xlink:href="#e" transform="matrix(1,0,0,1,3268,2886) translate(51.5 56.1)"/><path d="M3340 2762.5v98.12" stroke="#333" fill="none"/><path d="M3340.5 2762.5h-1v-.5h1z" stroke="#333" stroke-width=".05" fill="#333"/><path d="M3340 2875.38l-4.64-14.26h9.28z" stroke="#333" fill="#333"/><path d="M3260 3098h160v121h-160z" stroke="#333" stroke-width="2" fill="#fff"/><use xlink:href="#f" transform="matrix(1,0,0,1,3268,3106) translate(30.549999999999997 56.1)"/><path d="M3340 3000.5v66.13" stroke="#333" fill="none"/><path d="M3340.5 3000.5h-1v-.5h1z" stroke="#333" stroke-width=".05" fill="#333"/><path d="M3340 3096.3l-14.85-14.86 14.85-15.15 14.85 15.14z" stroke="#333" fill="#333"/><path d="M3680 3318h160v121h-160z" stroke="#333" stroke-width="2" fill="#fff"/><use xlink:href="#g" transform="matrix(1,0,0,1,3688,3326) translate(29.700000000000003 56.1)"/><path d="M3920 3318h160v121h-160z" stroke="#333" stroke-width="2" fill="#fff"/><use xlink:href="#h" transform="matrix(1,0,0,1,3928,3326) translate(43.074999999999996 56.1)"/><path d="M3080 3318h160v121h-160z" stroke="#333" stroke-width="2" fill="#fff"/><use xlink:href="#i" transform="matrix(1,0,0,1,3088,3326) translate(38.55 56.1)"/><path d="M2840 3318h160v121h-160z" stroke="#333" stroke-width="2" fill="#fff"/><use xlink:href="#j" transform="matrix(1,0,0,1,2848,3326) translate(46 56.1)"/><path d="M3740 2740h160v121h-160z" stroke="#6db1ff" stroke-width="2" fill="#fff"/><use xlink:href="#k" transform="matrix(1,0,0,1,3748,2748) translate(37.574999999999996 56.1)"/><path d="M3681.5 2700.5h16.5a12 12 0 0 1 12 12v74a12 12 0 0 0 12 12h.62" stroke="#333" fill="none"/><path d="M3681.5 2701h-.5v-1h.5z" stroke="#333" stroke-width=".05" fill="#333"/><path d="M3737.38 2798.5l-14.26 4.64v-9.28z" stroke="#333" fill="#333"/><path d="M3260 2440h160v121h-160z" stroke="#6db1ff" stroke-width="2" fill="#fff"/><use xlink:href="#k" transform="matrix(1,0,0,1,3268,2448) translate(37.574999999999996 56.1)"/><path d="M3340 2638.5v-60.12" stroke="#333" fill="none"/><path d="M3340.5 2639h-1v-.5h1z" stroke="#333" stroke-width=".05" fill="#333"/><path d="M3340 2563.62l4.64 14.26h-9.28z" stroke="#333" fill="#333"/><path d="M3160 3316.5v-36a12 12 0 0 1 12-12h156a12 12 0 0 0 12-12V3243" stroke="#333" fill="none"/><path d="M3160.5 3317h-1v-.5h1z" stroke="#333" stroke-width=".05" fill="#333"/><path d="M3340 3220.98l12.73 21.52h-25.46z" stroke="#333" fill="#fff"/><path d="M2920 3316.5v-36a12 12 0 0 1 12-12h396a12 12 0 0 0 12-12V3243" stroke="#333" fill="none"/><path d="M2920.5 3317h-1v-.5h1z" stroke="#333" stroke-width=".05" fill="#333"/><path d="M3340 3220.98l12.73 21.52h-25.46z" stroke="#333" fill="#fff"/><path d="M3520 3316.5v-36a12 12 0 0 0-12-12h-156a12 12 0 0 1-12-12V3243" stroke="#333" fill="none"/><path d="M3520.5 3317h-1v-.5h1z" stroke="#333" stroke-width=".05" fill="#333"/><path d="M3340 3220.98l12.73 21.52h-25.46z" stroke="#333" fill="#fff"/><path d="M3760 3316.5v-36a12 12 0 0 0-12-12h-396a12 12 0 0 1-12-12V3243" stroke="#333" fill="none"/><path d="M3760.5 3317h-1v-.5h1z" stroke="#333" stroke-width=".05" fill="#333"/><path d="M3340 3220.98l12.73 21.52h-25.46z" stroke="#333" fill="#fff"/><path d="M4000 3316.5v-36a12 12 0 0 0-12-12h-636a12 12 0 0 1-12-12V3243" stroke="#333" fill="none"/><path d="M4000.5 3317h-1v-.5h1z" stroke="#333" stroke-width=".05" fill="#333"/><path d="M3340 3220.98l12.73 21.52h-25.46z" stroke="#333" fill="#fff"/><path d="M2600 3318h160v121h-160z" stroke="#333" stroke-width="2" fill="#fff"/><use xlink:href="#l" transform="matrix(1,0,0,1,2608,3326) translate(43.525 56.1)"/><path d="M2680 3316.5v-36a12 12 0 0 1 12-12h636a12 12 0 0 0 12-12V3243" stroke="#333" fill="none"/><path d="M2680.5 3317h-1v-.5h1z" stroke="#333" stroke-width=".05" fill="#333"/><path d="M3340 3220.98l12.73 21.52h-25.46z" stroke="#333" fill="#fff"/><path d="M2960 2640h160v121h-160z" stroke="#54c45e" stroke-width="2" fill="#fff"/><use xlink:href="#c" transform="matrix(1,0,0,1,2968,2648) translate(52.525 56.1)"/><path d="M3258.5 2700.5h-121.12" stroke="#333" fill="none"/><path d="M3259 2701h-.5v-1h.5z" stroke="#333" stroke-width=".05" fill="#333"/><path d="M3122.62 2700.5l14.26-4.64v9.28z" stroke="#333" fill="#333"/><defs><path fill="#333" d="M63-220v92h138v28H63V0H30v-248h175v28H63" id="m"/><path fill="#333" d="M84 4C-5 8 30-112 23-190h32v120c0 31 7 50 39 49 72-2 45-101 50-169h31l1 190h-30c-1-10 1-25-2-33-11 22-28 36-60 37" id="n"/><path fill="#333" d="M117-194c89-4 53 116 60 194h-32v-121c0-31-8-49-39-48C34-167 62-67 57 0H25l-1-190h30c1 10-1 24 2 32 11-22 29-35 61-36" id="o"/><path fill="#333" d="M96-169c-40 0-48 33-48 73s9 75 48 75c24 0 41-14 43-38l32 2c-6 37-31 61-74 61-59 0-76-41-82-99-10-93 101-131 147-64 4 7 5 14 7 22l-32 3c-4-21-16-35-41-35" id="p"/><path fill="#333" d="M59-47c-2 24 18 29 38 22v24C64 9 27 4 27-40v-127H5v-23h24l9-43h21v43h35v23H59v120" id="q"/><path fill="#333" d="M24-231v-30h32v30H24zM24 0v-190h32V0H24" id="r"/><path fill="#333" d="M100-194c62-1 85 37 85 99 1 63-27 99-86 99S16-35 15-95c0-66 28-99 85-99zM99-20c44 1 53-31 53-75 0-43-8-75-51-75s-53 32-53 75 10 74 51 75" id="s"/><path fill="#333" d="M30-248c118-7 216 8 213 122C240-48 200 0 122 0H30v-248zM63-27c89 8 146-16 146-99s-60-101-146-95v194" id="t"/><path fill="#333" d="M100-194c63 0 86 42 84 106H49c0 40 14 67 53 68 26 1 43-12 49-29l28 8c-11 28-37 45-77 45C44 4 14-33 15-96c1-61 26-98 85-98zm52 81c6-60-76-77-97-28-3 7-6 17-6 28h103" id="u"/><path fill="#333" d="M24 0v-261h32V0H24" id="v"/><g id="a"><use transform="matrix(0.05,0,0,0.05,0,0)" xlink:href="#m"/><use transform="matrix(0.05,0,0,0.05,10.950000000000001,0)" xlink:href="#n"/><use transform="matrix(0.05,0,0,0.05,20.950000000000003,0)" xlink:href="#o"/><use transform="matrix(0.05,0,0,0.05,30.950000000000003,0)" xlink:href="#p"/><use transform="matrix(0.05,0,0,0.05,39.95,0)" xlink:href="#q"/><use transform="matrix(0.05,0,0,0.05,44.95,0)" xlink:href="#r"/><use transform="matrix(0.05,0,0,0.05,48.900000000000006,0)" xlink:href="#s"/><use transform="matrix(0.05,0,0,0.05,58.900000000000006,0)" xlink:href="#o"/><use transform="matrix(0.05,0,0,0.05,68.9,0)" xlink:href="#t"/><use transform="matrix(0.05,0,0,0.05,81.85000000000001,0)" xlink:href="#u"/><use transform="matrix(0.05,0,0,0.05,91.85000000000001,0)" xlink:href="#p"/><use transform="matrix(0.05,0,0,0.05,100.85000000000001,0)" xlink:href="#v"/></g><path fill="#333" d="M205 0l-28-72H64L36 0H1l101-248h38L239 0h-34zm-38-99l-47-123c-12 45-31 82-46 123h93" id="w"/><path fill="#333" d="M114-163C36-179 61-72 57 0H25l-1-190h30c1 12-1 29 2 39 6-27 23-49 58-41v29" id="x"/><path fill="#333" d="M177-190C167-65 218 103 67 71c-23-6-38-20-44-43l32-5c15 47 100 32 89-28v-30C133-14 115 1 83 1 29 1 15-40 15-95c0-56 16-97 71-98 29-1 48 16 59 35 1-10 0-23 2-32h30zM94-22c36 0 50-32 50-73 0-42-14-75-50-75-39 0-46 34-46 75s6 73 46 73" id="y"/><path fill="#333" d="M210-169c-67 3-38 105-44 169h-31v-121c0-29-5-50-35-48C34-165 62-65 56 0H25l-1-190h30c1 10-1 24 2 32 10-44 99-50 107 0 11-21 27-35 58-36 85-2 47 119 55 194h-31v-121c0-29-5-49-35-48" id="z"/><g id="b"><use transform="matrix(0.05,0,0,0.05,0,0)" xlink:href="#w"/><use transform="matrix(0.05,0,0,0.05,12,0)" xlink:href="#x"/><use transform="matrix(0.05,0,0,0.05,17.95,0)" xlink:href="#y"/><use transform="matrix(0.05,0,0,0.05,27.950000000000003,0)" xlink:href="#n"/><use transform="matrix(0.05,0,0,0.05,37.95,0)" xlink:href="#z"/><use transform="matrix(0.05,0,0,0.05,52.900000000000006,0)" xlink:href="#u"/><use transform="matrix(0.05,0,0,0.05,62.900000000000006,0)" xlink:href="#o"/><use transform="matrix(0.05,0,0,0.05,72.9,0)" xlink:href="#q"/></g><path fill="#333" d="M127-220V0H93v-220H8v-28h204v28h-85" id="A"/><path fill="#333" d="M179-190L93 31C79 59 56 82 12 73V49c39 6 53-20 64-50L1-190h34L92-34l54-156h33" id="B"/><path fill="#333" d="M115-194c55 1 70 41 70 98S169 2 115 4C84 4 66-9 55-30l1 105H24l-1-265h31l2 30c10-21 28-34 59-34zm-8 174c40 0 45-34 45-75s-6-73-45-74c-42 0-51 32-51 76 0 43 10 73 51 73" id="C"/><g id="c"><use transform="matrix(0.05,0,0,0.05,0,0)" xlink:href="#A"/><use transform="matrix(0.05,0,0,0.05,9.950000000000001,0)" xlink:href="#B"/><use transform="matrix(0.05,0,0,0.05,18.950000000000003,0)" xlink:href="#C"/><use transform="matrix(0.05,0,0,0.05,28.950000000000003,0)" xlink:href="#u"/></g><path fill="#333" d="M240 0l2-218c-23 76-54 145-80 218h-23L58-218 59 0H30v-248h44l77 211c21-75 51-140 76-211h43V0h-30" id="D"/><path fill="#333" d="M108 0H70L1-190h34L89-25l56-165h34" id="E"/><g id="d"><use transform="matrix(0.05,0,0,0.05,0,0)" xlink:href="#D"/><use transform="matrix(0.05,0,0,0.05,14.950000000000001,0)" xlink:href="#s"/><use transform="matrix(0.05,0,0,0.05,24.950000000000003,0)" xlink:href="#E"/><use transform="matrix(0.05,0,0,0.05,33.95,0)" xlink:href="#u"/><use transform="matrix(0.05,0,0,0.05,43.95,0)" xlink:href="#z"/><use transform="matrix(0.05,0,0,0.05,58.900000000000006,0)" xlink:href="#u"/><use transform="matrix(0.05,0,0,0.05,68.9,0)" xlink:href="#o"/><use transform="matrix(0.05,0,0,0.05,78.9,0)" xlink:href="#q"/></g><path fill="#333" d="M160-131c35 5 61 23 61 61C221 17 115-2 30 0v-248c76 3 177-17 177 60 0 33-19 50-47 57zm-97-11c50-1 110 9 110-42 0-47-63-36-110-37v79zm0 115c55-2 124 14 124-45 0-56-70-42-124-44v89" id="F"/><path fill="#333" d="M85-194c31 0 48 13 60 33l-1-100h32l1 261h-30c-2-10 0-23-3-31C134-8 116 4 85 4 32 4 16-35 15-94c0-66 23-100 70-100zm9 24c-40 0-46 34-46 75 0 40 6 74 45 74 42 0 51-32 51-76 0-42-9-74-50-73" id="G"/><g id="e"><use transform="matrix(0.05,0,0,0.05,0,0)" xlink:href="#F"/><use transform="matrix(0.05,0,0,0.05,12,0)" xlink:href="#s"/><use transform="matrix(0.05,0,0,0.05,22,0)" xlink:href="#G"/><use transform="matrix(0.05,0,0,0.05,32,0)" xlink:href="#B"/></g><path fill="#333" d="M33 0v-248h34V0H33" id="H"/><path fill="#333" d="M135-143c-3-34-86-38-87 0 15 53 115 12 119 90S17 21 10-45l28-5c4 36 97 45 98 0-10-56-113-15-118-90-4-57 82-63 122-42 12 7 21 19 24 35" id="I"/><g id="f"><use transform="matrix(0.05,0,0,0.05,0,0)" xlink:href="#H"/><use transform="matrix(0.05,0,0,0.05,5,0)" xlink:href="#o"/><use transform="matrix(0.05,0,0,0.05,15,0)" xlink:href="#I"/><use transform="matrix(0.05,0,0,0.05,24,0)" xlink:href="#q"/><use transform="matrix(0.05,0,0,0.05,29,0)" xlink:href="#x"/><use transform="matrix(0.05,0,0,0.05,34.95,0)" xlink:href="#n"/><use transform="matrix(0.05,0,0,0.05,44.95,0)" xlink:href="#p"/><use transform="matrix(0.05,0,0,0.05,53.95,0)" xlink:href="#q"/><use transform="matrix(0.05,0,0,0.05,58.95,0)" xlink:href="#r"/><use transform="matrix(0.05,0,0,0.05,62.900000000000006,0)" xlink:href="#s"/><use transform="matrix(0.05,0,0,0.05,72.9,0)" xlink:href="#o"/></g><path fill="#333" d="M101-234c-31-9-42 10-38 44h38v23H63V0H32v-167H5v-23h27c-7-52 17-82 69-68v24" id="J"/><path fill="#333" d="M141-36C126-15 110 5 73 4 37 3 15-17 15-53c-1-64 63-63 125-63 3-35-9-54-41-54-24 1-41 7-42 31l-33-3c5-37 33-52 76-52 45 0 72 20 72 64v82c-1 20 7 32 28 27v20c-31 9-61-2-59-35zM48-53c0 20 12 33 32 33 41-3 63-29 60-74-43 2-92-5-92 41" id="K"/><g id="g"><use transform="matrix(0.05,0,0,0.05,0,0)" xlink:href="#w"/><use transform="matrix(0.05,0,0,0.05,12,0)" xlink:href="#J"/><use transform="matrix(0.05,0,0,0.05,16.65,0)" xlink:href="#J"/><use transform="matrix(0.05,0,0,0.05,21.65,0)" xlink:href="#u"/><use transform="matrix(0.05,0,0,0.05,31.649999999999995,0)" xlink:href="#p"/><use transform="matrix(0.05,0,0,0.05,40.65,0)" xlink:href="#q"/><use transform="matrix(0.05,0,0,0.05,45.65,0)" xlink:href="#K"/><use transform="matrix(0.05,0,0,0.05,55.650000000000006,0)" xlink:href="#q"/><use transform="matrix(0.05,0,0,0.05,60.650000000000006,0)" xlink:href="#r"/><use transform="matrix(0.05,0,0,0.05,64.6,0)" xlink:href="#s"/><use transform="matrix(0.05,0,0,0.05,74.6,0)" xlink:href="#o"/></g><path fill="#333" d="M212-179c-10-28-35-45-73-45-59 0-87 40-87 99 0 60 29 101 89 101 43 0 62-24 78-52l27 14C228-24 195 4 139 4 59 4 22-46 18-125c-6-104 99-153 187-111 19 9 31 26 39 46" id="L"/><g id="h"><use transform="matrix(0.05,0,0,0.05,0,0)" xlink:href="#L"/><use transform="matrix(0.05,0,0,0.05,12.950000000000001,0)" xlink:href="#s"/><use transform="matrix(0.05,0,0,0.05,22.950000000000003,0)" xlink:href="#o"/><use transform="matrix(0.05,0,0,0.05,32.95,0)" xlink:href="#q"/><use transform="matrix(0.05,0,0,0.05,37.95,0)" xlink:href="#x"/><use transform="matrix(0.05,0,0,0.05,43.900000000000006,0)" xlink:href="#s"/><use transform="matrix(0.05,0,0,0.05,53.900000000000006,0)" xlink:href="#v"/></g><path fill="#333" d="M233-177c-1 41-23 64-60 70L243 0h-38l-65-103H63V0H30v-248c88 3 205-21 203 71zM63-129c60-2 137 13 137-47 0-61-80-42-137-45v92" id="M"/><g id="i"><use transform="matrix(0.05,0,0,0.05,0,0)" xlink:href="#M"/><use transform="matrix(0.05,0,0,0.05,12.950000000000001,0)" xlink:href="#s"/><use transform="matrix(0.05,0,0,0.05,22.950000000000003,0)" xlink:href="#q"/><use transform="matrix(0.05,0,0,0.05,27.950000000000003,0)" xlink:href="#K"/><use transform="matrix(0.05,0,0,0.05,37.95,0)" xlink:href="#q"/><use transform="matrix(0.05,0,0,0.05,42.95,0)" xlink:href="#r"/><use transform="matrix(0.05,0,0,0.05,46.900000000000006,0)" xlink:href="#s"/><use transform="matrix(0.05,0,0,0.05,56.900000000000006,0)" xlink:href="#o"/></g><path fill="#333" d="M185-189c-5-48-123-54-124 2 14 75 158 14 163 119 3 78-121 87-175 55-17-10-28-26-33-46l33-7c5 56 141 63 141-1 0-78-155-14-162-118-5-82 145-84 179-34 5 7 8 16 11 25" id="N"/><g id="j"><use transform="matrix(0.05,0,0,0.05,0,0)" xlink:href="#N"/><use transform="matrix(0.05,0,0,0.05,12,0)" xlink:href="#C"/><use transform="matrix(0.05,0,0,0.05,22,0)" xlink:href="#u"/><use transform="matrix(0.05,0,0,0.05,32,0)" xlink:href="#u"/><use transform="matrix(0.05,0,0,0.05,42,0)" xlink:href="#G"/></g><g id="k"><use transform="matrix(0.05,0,0,0.05,0,0)" xlink:href="#H"/><use transform="matrix(0.05,0,0,0.05,5,0)" xlink:href="#G"/><use transform="matrix(0.05,0,0,0.05,15,0)" xlink:href="#u"/><use transform="matrix(0.05,0,0,0.05,25,0)" xlink:href="#o"/><use transform="matrix(0.05,0,0,0.05,35,0)" xlink:href="#q"/><use transform="matrix(0.05,0,0,0.05,40,0)" xlink:href="#r"/><use transform="matrix(0.05,0,0,0.05,43.95,0)" xlink:href="#J"/><use transform="matrix(0.05,0,0,0.05,48.95,0)" xlink:href="#r"/><use transform="matrix(0.05,0,0,0.05,52.900000000000006,0)" xlink:href="#u"/><use transform="matrix(0.05,0,0,0.05,62.900000000000006,0)" xlink:href="#x"/></g><g id="l"><use transform="matrix(0.05,0,0,0.05,0,0)" xlink:href="#N"/><use transform="matrix(0.05,0,0,0.05,12,0)" xlink:href="#u"/><use transform="matrix(0.05,0,0,0.05,22,0)" xlink:href="#o"/><use transform="matrix(0.05,0,0,0.05,32,0)" xlink:href="#I"/><use transform="matrix(0.05,0,0,0.05,41,0)" xlink:href="#s"/><use transform="matrix(0.05,0,0,0.05,51,0)" xlink:href="#x"/></g></defs></g></svg>