<svg xmlns="http://www.w3.org/2000/svg" xmlns:xlink="http://www.w3.org/1999/xlink" xmlns:lucid="lucid" width="862" height="483"><g transform="translate(-99 -319)" lucid:page-tab-id="HWEp-vi-RSFO"><path d="M340 560h160v121H340z" stroke="#333" stroke-width="2" fill="#fff"/><use xlink:href="#a" transform="matrix(1,0,0,1,348,568) translate(37.574999999999996 56.1)"/><path d="M560 560h160v121H560z" stroke="#333" stroke-width="2" fill="#fff"/><use xlink:href="#b" transform="matrix(1,0,0,1,568,568) translate(30.074999999999996 56.1)"/><path d="M460 340h160v121H460z" stroke="#333" stroke-width="2" fill="#fff"/><use xlink:href="#c" transform="matrix(1,0,0,1,468,348) translate(22.124999999999993 56.1)"/><path d="M780 460h160v121H780z" stroke="#333" stroke-width="2" fill="#fff"/><use xlink:href="#d" transform="matrix(1,0,0,1,788,468) translate(39.75 56.1)"/><path d="M780 660h160v121H780z" stroke="#333" stroke-width="2" fill="#fff"/><use xlink:href="#e" transform="matrix(1,0,0,1,788,668) translate(49.7 56.1)"/><path d="M540 462.5v36a12 12 0 0 1-12 12h-96a12 12 0 0 0-12 12v20.12" stroke="#333" fill="none"/><path d="M540.5 462.5h-1v-.5h1z" stroke="#333" stroke-width=".05" fill="#333"/><path d="M420 557.38l-4.63-14.26h9.26z" stroke="#333" fill="#333"/><path d="M540 462.5v36a12 12 0 0 0 12 12h73a12 12 0 0 1 12 12v6.13" stroke="#333" fill="none"/><path d="M540.5 462.5h-1v-.5h1z" stroke="#333" stroke-width=".05" fill="#333"/><path d="M637 558.3l-14.85-14.86L637 528.3l14.85 15.14z" stroke="#333" fill="#333"/><path d="M120 560h160v121H120z" stroke="#333" stroke-width="2" fill="#fff"/><use xlink:href="#e" transform="matrix(1,0,0,1,128,568) translate(49.7 56.1)"/><path d="M540 462.5v36a12 12 0 0 1-12 12H212a12 12 0 0 0-12 12v20.12" stroke="#333" fill="none"/><path d="M540.5 462.5h-1v-.5h1z" stroke="#333" stroke-width=".05" fill="#333"/><path d="M200 557.38l-4.63-14.26h9.26z" stroke="#333" fill="#333"/><path d="M721.5 620.5H738a12 12 0 0 0 12-12v-76a12 12 0 0 1 12-12h.62" stroke="#333" fill="none"/><path d="M721.5 621h-.5v-1h.5z" stroke="#333" stroke-width=".05" fill="#333"/><path d="M777.38 520.5l-14.26 4.63v-9.26z" stroke="#333" fill="#333"/><path d="M721.5 620.5H738a12 12 0 0 1 12 12v76a12 12 0 0 0 12 12h.62" stroke="#333" fill="none"/><path d="M721.5 621h-.5v-1h.5z" stroke="#333" stroke-width=".05" fill="#333"/><path d="M777.38 720.5l-14.26 4.63v-9.26z" stroke="#333" fill="#333"/><defs><path fill="#333" d="M33 0v-248h34V0H33" id="f"/><path fill="#333" d="M85-194c31 0 48 13 60 33l-1-100h32l1 261h-30c-2-10 0-23-3-31C134-8 116 4 85 4 32 4 16-35 15-94c0-66 23-100 70-100zm9 24c-40 0-46 34-46 75 0 40 6 74 45 74 42 0 51-32 51-76 0-42-9-74-50-73" id="g"/><path fill="#333" d="M100-194c63 0 86 42 84 106H49c0 40 14 67 53 68 26 1 43-12 49-29l28 8c-11 28-37 45-77 45C44 4 14-33 15-96c1-61 26-98 85-98zm52 81c6-60-76-77-97-28-3 7-6 17-6 28h103" id="h"/><path fill="#333" d="M117-194c89-4 53 116 60 194h-32v-121c0-31-8-49-39-48C34-167 62-67 57 0H25l-1-190h30c1 10-1 24 2 32 11-22 29-35 61-36" id="i"/><path fill="#333" d="M59-47c-2 24 18 29 38 22v24C64 9 27 4 27-40v-127H5v-23h24l9-43h21v43h35v23H59v120" id="j"/><path fill="#333" d="M24-231v-30h32v30H24zM24 0v-190h32V0H24" id="k"/><path fill="#333" d="M101-234c-31-9-42 10-38 44h38v23H63V0H32v-167H5v-23h27c-7-52 17-82 69-68v24" id="l"/><path fill="#333" d="M114-163C36-179 61-72 57 0H25l-1-190h30c1 12-1 29 2 39 6-27 23-49 58-41v29" id="m"/><g id="a"><use transform="matrix(0.05,0,0,0.05,0,0)" xlink:href="#f"/><use transform="matrix(0.05,0,0,0.05,5,0)" xlink:href="#g"/><use transform="matrix(0.05,0,0,0.05,15,0)" xlink:href="#h"/><use transform="matrix(0.05,0,0,0.05,25,0)" xlink:href="#i"/><use transform="matrix(0.05,0,0,0.05,35,0)" xlink:href="#j"/><use transform="matrix(0.05,0,0,0.05,40,0)" xlink:href="#k"/><use transform="matrix(0.05,0,0,0.05,43.95,0)" xlink:href="#l"/><use transform="matrix(0.05,0,0,0.05,48.95,0)" xlink:href="#k"/><use transform="matrix(0.05,0,0,0.05,52.900000000000006,0)" xlink:href="#h"/><use transform="matrix(0.05,0,0,0.05,62.900000000000006,0)" xlink:href="#m"/></g><path fill="#333" d="M30-248c87 1 191-15 191 75 0 78-77 80-158 76V0H30v-248zm33 125c57 0 124 11 124-50 0-59-68-47-124-48v98" id="n"/><path fill="#333" d="M141-36C126-15 110 5 73 4 37 3 15-17 15-53c-1-64 63-63 125-63 3-35-9-54-41-54-24 1-41 7-42 31l-33-3c5-37 33-52 76-52 45 0 72 20 72 64v82c-1 20 7 32 28 27v20c-31 9-61-2-59-35zM48-53c0 20 12 33 32 33 41-3 63-29 60-74-43 2-92-5-92 41" id="o"/><path fill="#333" d="M210-169c-67 3-38 105-44 169h-31v-121c0-29-5-50-35-48C34-165 62-65 56 0H25l-1-190h30c1 10-1 24 2 32 10-44 99-50 107 0 11-21 27-35 58-36 85-2 47 119 55 194h-31v-121c0-29-5-49-35-48" id="p"/><g id="b"><use transform="matrix(0.05,0,0,0.05,0,0)" xlink:href="#n"/><use transform="matrix(0.05,0,0,0.05,12,0)" xlink:href="#o"/><use transform="matrix(0.05,0,0,0.05,22,0)" xlink:href="#m"/><use transform="matrix(0.05,0,0,0.05,27.950000000000003,0)" xlink:href="#o"/><use transform="matrix(0.05,0,0,0.05,37.95,0)" xlink:href="#p"/><use transform="matrix(0.05,0,0,0.05,52.900000000000006,0)" xlink:href="#h"/><use transform="matrix(0.05,0,0,0.05,62.900000000000006,0)" xlink:href="#j"/><use transform="matrix(0.05,0,0,0.05,67.9,0)" xlink:href="#h"/><use transform="matrix(0.05,0,0,0.05,77.9,0)" xlink:href="#m"/></g><path fill="#333" d="M63-220v92h138v28H63V0H30v-248h175v28H63" id="q"/><path fill="#333" d="M84 4C-5 8 30-112 23-190h32v120c0 31 7 50 39 49 72-2 45-101 50-169h31l1 190h-30c-1-10 1-25-2-33-11 22-28 36-60 37" id="r"/><path fill="#333" d="M96-169c-40 0-48 33-48 73s9 75 48 75c24 0 41-14 43-38l32 2c-6 37-31 61-74 61-59 0-76-41-82-99-10-93 101-131 147-64 4 7 5 14 7 22l-32 3c-4-21-16-35-41-35" id="s"/><path fill="#333" d="M100-194c62-1 85 37 85 99 1 63-27 99-86 99S16-35 15-95c0-66 28-99 85-99zM99-20c44 1 53-31 53-75 0-43-8-75-51-75s-53 32-53 75 10 74 51 75" id="t"/><path fill="#333" d="M212-179c-10-28-35-45-73-45-59 0-87 40-87 99 0 60 29 101 89 101 43 0 62-24 78-52l27 14C228-24 195 4 139 4 59 4 22-46 18-125c-6-104 99-153 187-111 19 9 31 26 39 46" id="u"/><path fill="#333" d="M24 0v-261h32V0H24" id="v"/><g id="c"><use transform="matrix(0.05,0,0,0.05,0,0)" xlink:href="#q"/><use transform="matrix(0.05,0,0,0.05,10.950000000000001,0)" xlink:href="#r"/><use transform="matrix(0.05,0,0,0.05,20.950000000000003,0)" xlink:href="#i"/><use transform="matrix(0.05,0,0,0.05,30.950000000000003,0)" xlink:href="#s"/><use transform="matrix(0.05,0,0,0.05,39.95,0)" xlink:href="#j"/><use transform="matrix(0.05,0,0,0.05,44.95,0)" xlink:href="#k"/><use transform="matrix(0.05,0,0,0.05,48.900000000000006,0)" xlink:href="#t"/><use transform="matrix(0.05,0,0,0.05,58.900000000000006,0)" xlink:href="#i"/><use transform="matrix(0.05,0,0,0.05,68.9,0)" xlink:href="#u"/><use transform="matrix(0.05,0,0,0.05,81.85000000000001,0)" xlink:href="#o"/><use transform="matrix(0.05,0,0,0.05,91.85000000000001,0)" xlink:href="#v"/><use transform="matrix(0.05,0,0,0.05,95.80000000000001,0)" xlink:href="#v"/></g><path fill="#333" d="M137 0h-34L2-248h35l83 218 83-218h36" id="w"/><path fill="#333" d="M115-194c53 0 69 39 70 98 0 66-23 100-70 100C84 3 66-7 56-30L54 0H23l1-261h32v101c10-23 28-34 59-34zm-8 174c40 0 45-34 45-75 0-40-5-75-45-74-42 0-51 32-51 76 0 43 10 73 51 73" id="x"/><g id="d"><use transform="matrix(0.05,0,0,0.05,0,0)" xlink:href="#w"/><use transform="matrix(0.05,0,0,0.05,10.65,0)" xlink:href="#o"/><use transform="matrix(0.05,0,0,0.05,20.65,0)" xlink:href="#m"/><use transform="matrix(0.05,0,0,0.05,26.599999999999994,0)" xlink:href="#k"/><use transform="matrix(0.05,0,0,0.05,30.549999999999997,0)" xlink:href="#o"/><use transform="matrix(0.05,0,0,0.05,40.55,0)" xlink:href="#x"/><use transform="matrix(0.05,0,0,0.05,50.55,0)" xlink:href="#v"/><use transform="matrix(0.05,0,0,0.05,54.5,0)" xlink:href="#h"/></g><g id="e"><use transform="matrix(0.05,0,0,0.05,0,0)" xlink:href="#w"/><use transform="matrix(0.05,0,0,0.05,10.65,0)" xlink:href="#o"/><use transform="matrix(0.05,0,0,0.05,20.65,0)" xlink:href="#v"/><use transform="matrix(0.05,0,0,0.05,24.599999999999998,0)" xlink:href="#r"/><use transform="matrix(0.05,0,0,0.05,34.599999999999994,0)" xlink:href="#h"/></g></defs></g></svg>