<svg width="195.821" height="243.575" xmlns="http://www.w3.org/2000/svg" xmlns:xlink="http://www.w3.org/1999/xlink" id="svg1" xml:space="preserve" overflow="hidden"><defs id="defs1"></defs><g id="g1" transform="matrix(3.77953 0 0 3.77953 -290.408 -143.636)"><g id="g39"><ellipse cx="119.524" cy="95.0122" rx="6.55401" ry="6.81272" id="ellipse33" stroke-width="0.442036" fill="#202034"/><ellipse cx="84.8571" cy="95.6368" rx="6.55401" ry="6.81272" id="path32" stroke-width="0.442036" fill="#202034"/><rect x="76.8371" y="47.0854" ry="9.05488" width="51.811" height="49.3101" id="rect19" stroke-width="0.27419" fill="#6C6CAA"/><path d="M101.929 84.9417C96.6372 84.9061 92.6952 80.9107 92.7219 76.9421L111.242 77.0667C111.216 81.0353 107.22 84.9773 101.929 84.9417Z" id="path3" stroke="#FFFFFF" stroke-width="0" fill="#FFFFFF"/><rect x="82.5287" y="56.3127" ry="5.26045" width="41.9112" height="10.5209" id="rect31" stroke-width="0.330764" fill="#FFFFFF"/><rect x="99.643" y="45.7621" ry="1.16969" width="6.15463" height="2.33939" id="rect33" stroke-width="0.169233" fill="#202034"/><rect x="112.612" y="-7.89487" rx="0.551052" ry="1.82294" width="1.25954" height="9.89594" id="rect34" stroke-width="0.169435" fill="#202034" transform="matrix(0.917428 0.397902 -0.460283 0.887772 0 0)"/><rect x="-69.9704" y="76.7987" rx="0.558818" ry="1.79523" width="1.27729" height="9.74553" id="rect35" stroke-width="0.169324" fill="#202034" transform="matrix(-0.904679 0.426094 0.467387 0.884053 0 0)"/><rect x="85.2883" y="57.865" ry="3.70819" width="36.2195" height="7.41638" id="rect36" stroke-width="0.258162"/><ellipse cx="93.6964" cy="61.6594" rx="2.67334" ry="2.24216" id="path39" stroke-width="0.269999" fill="#00FF00"/><ellipse cx="112.151" cy="61.7025" rx="2.67334" ry="2.24216" id="ellipse39" stroke-width="0.269999" fill="#00FF00"/></g></g></svg>