<svg xmlns="http://www.w3.org/2000/svg" xmlns:xlink="http://www.w3.org/1999/xlink" xmlns:lucid="lucid" width="2102" height="1733"><g transform="translate(-1679 -329)" lucid:page-tab-id="0_0"><path d="M1500 0h2500v2500H1500z" fill="#fff"/><path d="M2020 960h160v121h-160z" stroke="#333" stroke-width="2" fill="#fff"/><use xlink:href="#a" transform="matrix(1,0,0,1,2028,968) translate(3.549999999999997 56.1)"/><use xlink:href="#b" transform="matrix(1,0,0,1,2028,968) translate(74.5 56.1)"/><path d="M1700 740h160v121h-160z" stroke="#333" stroke-width="2" fill="#fff"/><use xlink:href="#c" transform="matrix(1,0,0,1,1708,748) translate(59.5 56.1)"/><path d="M1780 862.5v46a12 12 0 0 0 12 12h254.8a12 12 0 0 1 12 12v19.63" stroke="#333" fill="none"/><path d="M1780.5 862.5h-1v-.5h1z" stroke="#333" stroke-width=".05" fill="#333"/><path d="M2058.8 958.02l-7.63-12.9h15.27z" stroke="#333" fill="#333"/><path d="M2020 740h160v121h-160z" stroke="#333" stroke-width="2" fill="#fff"/><use xlink:href="#d" transform="matrix(1,0,0,1,2028,748) translate(57 56.1)"/><path d="M2100 862.5v66.13" stroke="#333" fill="none"/><path d="M2100.5 862.5h-1v-.5h1z" stroke="#333" stroke-width=".05" fill="#333"/><path d="M2100 958.3l-14.85-14.86L2100 928.3l14.85 15.14z" stroke="#333" fill="#333"/><path d="M2340 740h160v121h-160z" stroke="#333" stroke-width="2" fill="#fff"/><use xlink:href="#e" transform="matrix(1,0,0,1,2348,748) translate(64.025 56.1)"/><path d="M2420 862.5v42a6 6 0 0 1-6 6h-308a6 6 0 0 0-6 6v12.13" stroke="#3a414a" fill="none"/><path d="M2420.5 862.5h-1v-.5h1z" stroke="#3a414a" stroke-width=".05" fill="#3a414a"/><path d="M2100 958.3l-14.85-14.86L2100 928.3l14.85 15.14z" stroke="#3a414a" fill="#3a414a"/><path d="M2880 970h160v121h-160z" stroke="#333" stroke-width="2" fill="#fff"/><use xlink:href="#f" transform="matrix(1,0,0,1,2888,978) translate(4.599999999999994 56.1)"/><use xlink:href="#b" transform="matrix(1,0,0,1,2888,978) translate(73.45 56.1)"/><path d="M3179 650h160v121h-160z" stroke="#333" stroke-width="2" fill="#fff"/><use xlink:href="#g" transform="matrix(1,0,0,1,3187,658) translate(66.75 56.1)"/><path d="M3177.5 710.5h-56a12 12 0 0 0-12 12v296a12 12 0 0 1-12 12h-26.13" stroke="#333" fill="none"/><path d="M3178 711h-.5v-1h.5z" stroke="#333" stroke-width=".05" fill="#333"/><path d="M3041.7 1030.5l14.86-14.85 15.15 14.85-15.14 14.85z" stroke="#333" fill="#333"/><path d="M3179 810h160v121h-160z" stroke="#333" stroke-width="2" fill="#fff"/><use xlink:href="#h" transform="matrix(1,0,0,1,3187,818) translate(69.025 56.1)"/><path d="M3179 970h160v121h-160z" stroke="#333" stroke-width="2" fill="#fff"/><use xlink:href="#i" transform="matrix(1,0,0,1,3187,978) translate(68.5 56.1)"/><path d="M3179 500h160v121h-160z" stroke="#333" stroke-width="2" fill="#fff"/><use xlink:href="#j" transform="matrix(1,0,0,1,3187,508) translate(69.5 56.1)"/><path d="M3179 350h160v121h-160z" stroke="#333" stroke-width="2" fill="#fff"/><use xlink:href="#k" transform="matrix(1,0,0,1,3187,358) translate(64 56.1)"/><path d="M3177.5 410.5h-56a12 12 0 0 0-12 12v596a12 12 0 0 1-12 12h-26.13" stroke="#333" fill="none"/><path d="M3178 411h-.5v-1h.5z" stroke="#333" stroke-width=".05" fill="#333"/><path d="M3041.7 1030.5l14.86-14.85 15.15 14.85-15.14 14.85z" stroke="#333" fill="#333"/><path d="M3177.5 560.5h-56a12 12 0 0 0-12 12v446a12 12 0 0 1-12 12h-26.13" stroke="#333" fill="none"/><path d="M3178 561h-.5v-1h.5z" stroke="#333" stroke-width=".05" fill="#333"/><path d="M3041.7 1030.5l14.86-14.85 15.15 14.85-15.14 14.85z" stroke="#333" fill="#333"/><path d="M3177.5 870.5h-56a12 12 0 0 0-12 12v136a12 12 0 0 1-12 12h-26.13" stroke="#333" fill="none"/><path d="M3178 871h-.5v-1h.5z" stroke="#333" stroke-width=".05" fill="#333"/><path d="M3041.7 1030.5l14.86-14.85 15.15 14.85-15.14 14.85z" stroke="#333" fill="#333"/><path d="M3177.5 1030.5h-106.13" stroke="#333" fill="none"/><path d="M3178 1031h-.5v-1h.5z" stroke="#333" stroke-width=".05" fill="#333"/><path d="M3041.7 1030.5l14.86-14.85 15.15 14.85-15.14 14.85z" stroke="#333" fill="#333"/><path d="M1800 1440h160v121h-160z" stroke="#333" stroke-width="2" fill="#fff"/><use xlink:href="#l" transform="matrix(1,0,0,1,1808,1448) translate(39.025 56.1)"/><path d="M2480 1440h160v121h-160z" stroke="#333" stroke-width="2" fill="#fff"/><use xlink:href="#m" transform="matrix(1,0,0,1,2488,1448) translate(40.074999999999996 56.1)"/><path d="M2140 1660h160v121h-160z" stroke="#54c45e" stroke-width="2" fill="#fff"/><use xlink:href="#n" transform="matrix(1,0,0,1,2148,1668) translate(52.525 56.1)"/><path d="M2220 1636v-19.5a6 6 0 0 0-6-6h-328a6 6 0 0 1-6-6v-42" stroke="#3a414a" fill="none"/><path d="M2220 1658.02l-12.73-21.52h25.46z" stroke="#3a414a" fill="#fff"/><path d="M1880.5 1562.5h-1v-.5h1z" stroke="#3a414a" stroke-width=".05" fill="#3a414a"/><path d="M2220 1636v-19.5a6 6 0 0 1 6-6h328a6 6 0 0 0 6-6v-42" stroke="#3a414a" fill="none"/><path d="M2220 1658.02l-12.73-21.52h25.46z" stroke="#3a414a" fill="#fff"/><path d="M2560.5 1562.5h-1v-.5h1z" stroke="#3a414a" stroke-width=".05" fill="#3a414a"/><path d="M3179 1130h160v121h-160z" stroke="#333" stroke-width="2" fill="#fff"/><use xlink:href="#o" transform="matrix(1,0,0,1,3187,1138) translate(61.5 56.1)"/><path d="M3179 1290h160v121h-160z" stroke="#333" stroke-width="2" fill="#fff"/><use xlink:href="#p" transform="matrix(1,0,0,1,3187,1298) translate(64.25 56.1)"/><path d="M3179 1760h160v121h-160z" stroke="#333" stroke-width="2" fill="#fff"/><use xlink:href="#q" transform="matrix(1,0,0,1,3187,1768) translate(61.5 56.1)"/><path d="M3179 1920h160v121h-160z" stroke="#333" stroke-width="2" fill="#fff"/><use xlink:href="#r" transform="matrix(1,0,0,1,3187,1928) translate(61.5 56.1)"/><path d="M3177.5 1190.5h-62a6 6 0 0 1-6-6v-148a6 6 0 0 0-6-6h-32.13" stroke="#3a414a" fill="none"/><path d="M3178 1191h-.5v-1h.5z" stroke="#3a414a" stroke-width=".05" fill="#3a414a"/><path d="M3041.7 1030.5l14.86-14.85 15.15 14.85-15.14 14.85z" stroke="#3a414a" fill="#3a414a"/><path d="M3177.5 1350.5h-62a6 6 0 0 1-6-6v-308a6 6 0 0 0-6-6h-32.13" stroke="#3a414a" fill="none"/><path d="M3178 1351h-.5v-1h.5z" stroke="#3a414a" stroke-width=".05" fill="#3a414a"/><path d="M3041.7 1030.5l14.86-14.85 15.15 14.85-15.14 14.85z" stroke="#3a414a" fill="#3a414a"/><path d="M3177.5 1820.5h-62a6 6 0 0 1-6-6v-778a6 6 0 0 0-6-6h-32.13" stroke="#3a414a" fill="none"/><path d="M3178 1821h-.5v-1h.5z" stroke="#3a414a" stroke-width=".05" fill="#3a414a"/><path d="M3041.7 1030.5l14.86-14.85 15.15 14.85-15.14 14.85z" stroke="#3a414a" fill="#3a414a"/><path d="M3177.5 1980.5h-62a6 6 0 0 1-6-6v-938a6 6 0 0 0-6-6h-32.13" stroke="#3a414a" fill="none"/><path d="M3178 1981h-.5v-1h.5z" stroke="#3a414a" stroke-width=".05" fill="#3a414a"/><path d="M3041.7 1030.5l14.86-14.85 15.15 14.85-15.14 14.85z" stroke="#3a414a" fill="#3a414a"/><path d="M3600 650h160v121h-160z" stroke="#333" stroke-width="2" fill="#fff"/><use xlink:href="#m" transform="matrix(1,0,0,1,3608,658) translate(40.074999999999996 56.1)"/><path d="M3340.5 410.5h123a6 6 0 0 1 6 6v288a6 6 0 0 0 6 6h107.12" stroke="#3a414a" fill="none"/><path d="M3340.5 411h-.5v-1h.5z" stroke="#3a414a" stroke-width=".05" fill="#3a414a"/><path d="M3597.38 710.5l-14.26 4.63v-9.26z" stroke="#3a414a" fill="#3a414a"/><path d="M3340.5 560.5h123a6 6 0 0 1 6 6v138a6 6 0 0 0 6 6h107.12" stroke="#3a414a" fill="none"/><path d="M3340.5 561h-.5v-1h.5z" stroke="#3a414a" stroke-width=".05" fill="#3a414a"/><path d="M3597.38 710.5l-14.26 4.63v-9.26z" stroke="#3a414a" fill="#3a414a"/><path d="M3340.5 710.5h240.12" stroke="#3a414a" fill="none"/><path d="M3340.5 711h-.5v-1h.5z" stroke="#3a414a" stroke-width=".05" fill="#3a414a"/><path d="M3595.38 710.5l-14.26 4.63v-9.26z" stroke="#3a414a" fill="#3a414a"/><path d="M3340.5 870.5h123a6 6 0 0 0 6-6v-148a6 6 0 0 1 6-6h107.12" stroke="#3a414a" fill="none"/><path d="M3340.5 871h-.5v-1h.5z" stroke="#3a414a" stroke-width=".05" fill="#3a414a"/><path d="M3597.38 710.5l-14.26 4.63v-9.26z" stroke="#3a414a" fill="#3a414a"/><path d="M3340.5 1030.5h123a6 6 0 0 0 6-6v-308a6 6 0 0 1 6-6h107.12" stroke="#3a414a" fill="none"/><path d="M3340.5 1031h-.5v-1h.5z" stroke="#3a414a" stroke-width=".05" fill="#3a414a"/><path d="M3597.38 710.5l-14.26 4.63v-9.26z" stroke="#3a414a" fill="#3a414a"/><path d="M3600 1540h160v121h-160z" stroke="#333" stroke-width="2" fill="#fff"/><use xlink:href="#l" transform="matrix(1,0,0,1,3608,1548) translate(39.025 56.1)"/><path d="M3340.5 1190.5h123a6 6 0 0 1 6 6v398a6 6 0 0 0 6 6h107.12" stroke="#3a414a" fill="none"/><path d="M3340.5 1191h-.5v-1h.5z" stroke="#3a414a" stroke-width=".05" fill="#3a414a"/><path d="M3597.38 1600.5l-14.26 4.63v-9.27z" stroke="#3a414a" fill="#3a414a"/><path d="M3340.5 1350.5h123a6 6 0 0 1 6 6v238a6 6 0 0 0 6 6h107.12" stroke="#3a414a" fill="none"/><path d="M3340.5 1351h-.5v-1h.5z" stroke="#3a414a" stroke-width=".05" fill="#3a414a"/><path d="M3597.38 1600.5l-14.26 4.63v-9.27z" stroke="#3a414a" fill="#3a414a"/><path d="M3340.5 1820.5h123a6 6 0 0 0 6-6v-208a6 6 0 0 1 6-6h107.12" stroke="#3a414a" fill="none"/><path d="M3340.5 1821h-.5v-1h.5z" stroke="#3a414a" stroke-width=".05" fill="#3a414a"/><path d="M3597.38 1600.5l-14.26 4.63v-9.27z" stroke="#3a414a" fill="#3a414a"/><path d="M3340.5 1980.5h123a6 6 0 0 0 6-6v-368a6 6 0 0 1 6-6h107.12" stroke="#3a414a" fill="none"/><path d="M3340.5 1981h-.5v-1h.5z" stroke="#3a414a" stroke-width=".05" fill="#3a414a"/><path d="M3597.38 1600.5l-14.26 4.63v-9.27z" stroke="#3a414a" fill="#3a414a"/><path d="M3179 1460h160v121h-160z" stroke="#333" stroke-width="2" fill="#fff"/><use xlink:href="#s" transform="matrix(1,0,0,1,3187,1468) translate(66.75 56.1)"/><path d="M3180 1610h160v121h-160z" stroke="#333" stroke-width="2" fill="#fff"/><use xlink:href="#t" transform="matrix(1,0,0,1,3188,1618) translate(66.75 56.1)"/><path d="M3177.5 1520.5h-62a6 6 0 0 1-6-6v-478a6 6 0 0 0-6-6h-32.13" stroke="#3a414a" fill="none"/><path d="M3178 1521h-.5v-1h.5z" stroke="#3a414a" stroke-width=".05" fill="#3a414a"/><path d="M3041.7 1030.5l14.86-14.85 15.15 14.85-15.14 14.85z" stroke="#3a414a" fill="#3a414a"/><path d="M3178.5 1670.5H3116a6 6 0 0 1-6-6v-628a6 6 0 0 0-6-6h-32.63" stroke="#3a414a" fill="none"/><path d="M3179 1671h-.5v-1h.5z" stroke="#3a414a" stroke-width=".05" fill="#3a414a"/><path d="M3041.7 1030.5l14.86-14.85 15.15 14.85-15.14 14.85z" stroke="#3a414a" fill="#3a414a"/><path d="M3340.5 1520.5h123a6 6 0 0 1 6 6v68a6 6 0 0 0 6 6h107.12" stroke="#3a414a" fill="none"/><path d="M3340.5 1521h-.5v-1h.5z" stroke="#3a414a" stroke-width=".05" fill="#3a414a"/><path d="M3597.38 1600.5l-14.26 4.63v-9.27z" stroke="#3a414a" fill="#3a414a"/><path d="M3341.5 1670.5H3464a6 6 0 0 0 6-6v-58a6 6 0 0 1 6-6h106.62" stroke="#3a414a" fill="none"/><path d="M3341.5 1671h-.5v-1h.5z" stroke="#3a414a" stroke-width=".05" fill="#3a414a"/><path d="M3597.38 1600.5l-14.26 4.63v-9.27z" stroke="#3a414a" fill="#3a414a"/><defs><path fill="#333" d="M160-131c35 5 61 23 61 61C221 17 115-2 30 0v-248c76 3 177-17 177 60 0 33-19 50-47 57zm-97-11c50-1 110 9 110-42 0-47-63-36-110-37v79zm0 115c55-2 124 14 124-45 0-56-70-42-124-44v89" id="u"/><path fill="#333" d="M100-194c62-1 85 37 85 99 1 63-27 99-86 99S16-35 15-95c0-66 28-99 85-99zM99-20c44 1 53-31 53-75 0-43-8-75-51-75s-53 32-53 75 10 74 51 75" id="v"/><path fill="#333" d="M24 0v-261h32V0H24" id="w"/><path fill="#333" d="M100-194c63 0 86 42 84 106H49c0 40 14 67 53 68 26 1 43-12 49-29l28 8c-11 28-37 45-77 45C44 4 14-33 15-96c1-61 26-98 85-98zm52 81c6-60-76-77-97-28-3 7-6 17-6 28h103" id="x"/><path fill="#333" d="M141-36C126-15 110 5 73 4 37 3 15-17 15-53c-1-64 63-63 125-63 3-35-9-54-41-54-24 1-41 7-42 31l-33-3c5-37 33-52 76-52 45 0 72 20 72 64v82c-1 20 7 32 28 27v20c-31 9-61-2-59-35zM48-53c0 20 12 33 32 33 41-3 63-29 60-74-43 2-92-5-92 41" id="y"/><path fill="#333" d="M117-194c89-4 53 116 60 194h-32v-121c0-31-8-49-39-48C34-167 62-67 57 0H25l-1-190h30c1 10-1 24 2 32 11-22 29-35 61-36" id="z"/><g id="a"><use transform="matrix(0.05,0,0,0.05,0,0)" xlink:href="#u"/><use transform="matrix(0.05,0,0,0.05,12,0)" xlink:href="#v"/><use transform="matrix(0.05,0,0,0.05,22,0)" xlink:href="#v"/><use transform="matrix(0.05,0,0,0.05,32,0)" xlink:href="#w"/><use transform="matrix(0.05,0,0,0.05,35.95,0)" xlink:href="#x"/><use transform="matrix(0.05,0,0,0.05,45.95,0)" xlink:href="#y"/><use transform="matrix(0.05,0,0,0.05,55.95,0)" xlink:href="#z"/></g><path fill="#333" d="M115-194c55 1 70 41 70 98S169 2 115 4C84 4 66-9 55-30l1 105H24l-1-265h31l2 30c10-21 28-34 59-34zm-8 174c40 0 45-34 45-75s-6-73-45-74c-42 0-51 32-51 76 0 43 10 73 51 73" id="A"/><path fill="#333" d="M114-163C36-179 61-72 57 0H25l-1-190h30c1 12-1 29 2 39 6-27 23-49 58-41v29" id="B"/><path fill="#333" d="M85-194c31 0 48 13 60 33l-1-100h32l1 261h-30c-2-10 0-23-3-31C134-8 116 4 85 4 32 4 16-35 15-94c0-66 23-100 70-100zm9 24c-40 0-46 34-46 75 0 40 6 74 45 74 42 0 51-32 51-76 0-42-9-74-50-73" id="C"/><g id="b"><use transform="matrix(0.05,0,0,0.05,0,0)" xlink:href="#v"/><use transform="matrix(0.05,0,0,0.05,10,0)" xlink:href="#A"/><use transform="matrix(0.05,0,0,0.05,20,0)" xlink:href="#x"/><use transform="matrix(0.05,0,0,0.05,30,0)" xlink:href="#B"/><use transform="matrix(0.05,0,0,0.05,35.95,0)" xlink:href="#y"/><use transform="matrix(0.05,0,0,0.05,45.95,0)" xlink:href="#z"/><use transform="matrix(0.05,0,0,0.05,55.95,0)" xlink:href="#C"/></g><path fill="#333" d="M59-47c-2 24 18 29 38 22v24C64 9 27 4 27-40v-127H5v-23h24l9-43h21v43h35v23H59v120" id="D"/><g id="c"><use transform="matrix(0.05,0,0,0.05,0,0)" xlink:href="#z"/><use transform="matrix(0.05,0,0,0.05,10,0)" xlink:href="#v"/><use transform="matrix(0.05,0,0,0.05,20,0)" xlink:href="#D"/></g><g id="d"><use transform="matrix(0.05,0,0,0.05,0,0)" xlink:href="#y"/><use transform="matrix(0.05,0,0,0.05,10,0)" xlink:href="#z"/><use transform="matrix(0.05,0,0,0.05,20,0)" xlink:href="#C"/></g><g id="e"><use transform="matrix(0.05,0,0,0.05,0,0)" xlink:href="#v"/><use transform="matrix(0.05,0,0,0.05,10,0)" xlink:href="#B"/></g><path fill="#333" d="M190 0L58-211 59 0H30v-248h39L202-35l-2-213h31V0h-41" id="E"/><path fill="#333" d="M84 4C-5 8 30-112 23-190h32v120c0 31 7 50 39 49 72-2 45-101 50-169h31l1 190h-30c-1-10 1-25-2-33-11 22-28 36-60 37" id="F"/><path fill="#333" d="M210-169c-67 3-38 105-44 169h-31v-121c0-29-5-50-35-48C34-165 62-65 56 0H25l-1-190h30c1 10-1 24 2 32 10-44 99-50 107 0 11-21 27-35 58-36 85-2 47 119 55 194h-31v-121c0-29-5-49-35-48" id="G"/><path fill="#333" d="M115-194c53 0 69 39 70 98 0 66-23 100-70 100C84 3 66-7 56-30L54 0H23l1-261h32v101c10-23 28-34 59-34zm-8 174c40 0 45-34 45-75 0-40-5-75-45-74-42 0-51 32-51 76 0 43 10 73 51 73" id="H"/><g id="f"><use transform="matrix(0.05,0,0,0.05,0,0)" xlink:href="#E"/><use transform="matrix(0.05,0,0,0.05,12.950000000000001,0)" xlink:href="#F"/><use transform="matrix(0.05,0,0,0.05,22.950000000000003,0)" xlink:href="#G"/><use transform="matrix(0.05,0,0,0.05,37.900000000000006,0)" xlink:href="#H"/><use transform="matrix(0.05,0,0,0.05,47.900000000000006,0)" xlink:href="#x"/><use transform="matrix(0.05,0,0,0.05,57.900000000000006,0)" xlink:href="#B"/></g><path fill="#333" d="M118-107v75H92v-75H18v-26h74v-75h26v75h74v26h-74" id="I"/><use transform="matrix(0.05,0,0,0.05,0,0)" xlink:href="#I" id="g"/><path fill="#333" d="M16-82v-28h88v28H16" id="J"/><use transform="matrix(0.05,0,0,0.05,0,0)" xlink:href="#J" id="h"/><path fill="#333" d="M80-196l47-18 7 23-49 13 32 44-20 13-27-46-27 45-21-12 33-44-49-13 8-23 47 19-2-53h23" id="K"/><use transform="matrix(0.05,0,0,0.05,0,0)" xlink:href="#K" id="i"/><path fill="#333" d="M0 4l72-265h28L28 4H0" id="L"/><use transform="matrix(0.05,0,0,0.05,0,0)" xlink:href="#L" id="j"/><path fill="#333" d="M252-156c43 0 55 33 55 80 0 46-13 78-56 78-42 0-55-33-55-78 0-48 12-80 56-80zM93 0H65l162-248h28zM13-171c-1-47 13-79 56-79s55 33 55 79-13 79-55 79c-43 0-56-33-56-79zM251-17c28 0 30-29 30-59 0-31-1-60-29-60-29 0-31 29-31 60 0 29 2 59 30 59zM69-112c27 0 28-30 29-59 0-31-1-60-29-60-29 0-30 30-30 60s2 59 30 59" id="M"/><use transform="matrix(0.05,0,0,0.05,0,0)" xlink:href="#M" id="k"/><g id="l"><use transform="matrix(0.05,0,0,0.05,0,0)" xlink:href="#u"/><use transform="matrix(0.05,0,0,0.05,12,0)" xlink:href="#v"/><use transform="matrix(0.05,0,0,0.05,22,0)" xlink:href="#v"/><use transform="matrix(0.05,0,0,0.05,32,0)" xlink:href="#w"/><use transform="matrix(0.05,0,0,0.05,35.95,0)" xlink:href="#x"/><use transform="matrix(0.05,0,0,0.05,45.95,0)" xlink:href="#y"/><use transform="matrix(0.05,0,0,0.05,55.95,0)" xlink:href="#z"/></g><g id="m"><use transform="matrix(0.05,0,0,0.05,0,0)" xlink:href="#E"/><use transform="matrix(0.05,0,0,0.05,12.950000000000001,0)" xlink:href="#F"/><use transform="matrix(0.05,0,0,0.05,22.950000000000003,0)" xlink:href="#G"/><use transform="matrix(0.05,0,0,0.05,37.900000000000006,0)" xlink:href="#H"/><use transform="matrix(0.05,0,0,0.05,47.900000000000006,0)" xlink:href="#x"/><use transform="matrix(0.05,0,0,0.05,57.900000000000006,0)" xlink:href="#B"/></g><path fill="#333" d="M127-220V0H93v-220H8v-28h204v28h-85" id="N"/><path fill="#333" d="M179-190L93 31C79 59 56 82 12 73V49c39 6 53-20 64-50L1-190h34L92-34l54-156h33" id="O"/><g id="n"><use transform="matrix(0.05,0,0,0.05,0,0)" xlink:href="#N"/><use transform="matrix(0.05,0,0,0.05,9.950000000000001,0)" xlink:href="#O"/><use transform="matrix(0.05,0,0,0.05,18.950000000000003,0)" xlink:href="#A"/><use transform="matrix(0.05,0,0,0.05,28.950000000000003,0)" xlink:href="#x"/></g><path fill="#333" d="M18-150v-26h174v26H18zm0 90v-26h174v26H18" id="P"/><g id="o"><use transform="matrix(0.05,0,0,0.05,0,0)" xlink:href="#P"/><use transform="matrix(0.05,0,0,0.05,10.5,0)" xlink:href="#P"/></g><path fill="#333" d="M63-70H37l-4-178h34zM33 0v-35h34V0H33" id="Q"/><g id="p"><use transform="matrix(0.05,0,0,0.05,0,0)" xlink:href="#Q"/><use transform="matrix(0.05,0,0,0.05,5,0)" xlink:href="#P"/></g><path fill="#333" d="M18-27v-27l151-64-151-65v-27l175 74v36" id="R"/><g id="q"><use transform="matrix(0.05,0,0,0.05,0,0)" xlink:href="#R"/><use transform="matrix(0.05,0,0,0.05,10.5,0)" xlink:href="#P"/></g><path fill="#333" d="M18-100v-36l175-74v27L42-118l151 64v27" id="S"/><g id="r"><use transform="matrix(0.05,0,0,0.05,0,0)" xlink:href="#S"/><use transform="matrix(0.05,0,0,0.05,10.5,0)" xlink:href="#P"/></g><use transform="matrix(0.05,0,0,0.05,0,0)" xlink:href="#S" id="s"/><use transform="matrix(0.05,0,0,0.05,0,0)" xlink:href="#R" id="t"/></defs></g></svg>