<svg width="921" height="246" xmlns="http://www.w3.org/2000/svg" xmlns:xlink="http://www.w3.org/1999/xlink" overflow="hidden"><defs><clipPath id="clip0"><rect x="173" y="238" width="196" height="244"/></clipPath><clipPath id="clip1"><rect x="173" y="238" width="196" height="244"/></clipPath><clipPath id="clip2"><rect x="173" y="238" width="196" height="244"/></clipPath></defs><g transform="translate(-172 -237)"><g clip-path="url(#clip0)"><g clip-path="url(#clip1)"><g clip-path="url(#clip2)"><path d="M359.108 453.465C359.108 467.686 348.017 479.214 334.337 479.214 320.656 479.214 309.565 467.686 309.565 453.465 309.565 439.245 320.656 427.717 334.337 427.717 348.017 427.717 359.108 439.245 359.108 453.465Z" fill="#202034"/><path d="M228.083 455.826C228.083 470.047 216.993 481.575 203.312 481.575 189.631 481.575 178.541 470.047 178.541 455.826 178.541 441.605 189.631 430.077 203.312 430.077 216.993 430.077 228.083 441.605 228.083 455.826Z" fill="#202034"/><path d="M334.598 272.325C353.499 272.325 368.821 287.647 368.821 306.548L368.821 424.47C368.821 443.371 353.499 458.694 334.598 458.694L207.223 458.694C188.322 458.694 173 443.371 173 424.47L173 306.548C173 287.647 188.322 272.325 207.223 272.325Z" fill="#6C6CAA"/><path d="M267.836 415.404C247.835 415.269 232.936 400.168 233.037 385.169L303.034 385.64C302.936 400.639 287.833 415.538 267.836 415.404Z" fill="#FFFFFF"/><path d="M333.034 307.2C344.015 307.2 352.916 316.101 352.916 327.082L352.916 327.082C352.916 338.062 344.015 346.964 333.034 346.964L214.394 346.964C203.413 346.964 194.512 338.062 194.512 327.082L194.512 327.082C194.512 316.101 203.413 307.2 214.394 307.2Z" fill="#FFFFFF"/><path d="M278.036 267.323C280.478 267.323 282.457 269.303 282.457 271.744L282.457 271.744C282.457 274.186 280.478 276.165 278.036 276.165L263.617 276.165C261.175 276.165 259.196 274.186 259.196 271.744L259.196 271.744C259.196 269.303 261.175 267.323 263.617 267.323Z" fill="#202034"/><path d="M427.276-29.7677C428.424-29.7677 429.354-26.6904 429.354-22.8943L429.354 0.671642C429.354 4.46773 428.424 7.54506 427.276 7.54506L426.683 7.54506C425.535 7.54506 424.605 4.46773 424.605 0.671642L424.605-22.8943C424.605-26.6904 425.535-29.7677 426.683-29.7677Z" fill="#202034" transform="matrix(0.919622 0.398854 -0.461384 0.889895 -117.408 94.364)"/><path d="M-261.461 289.954C-260.296 289.954-259.351 292.988-259.351 296.732L-259.351 319.97C-259.351 323.714-260.296 326.748-261.461 326.748L-262.064 326.748C-263.229 326.748-264.174 323.714-264.174 319.97L-264.174 296.732C-264.174 292.988-263.229 289.954-262.064 289.954Z" fill="#202034" transform="matrix(-0.905644 0.426548 0.467885 0.884996 -117.408 94.364)"/><path d="M327.819 313.067C335.56 313.067 341.834 319.341 341.834 327.082L341.834 327.082C341.834 334.822 335.56 341.097 327.819 341.097L218.957 341.097C211.217 341.097 204.942 334.822 204.942 327.082L204.942 327.082C204.942 319.341 211.216 313.066 218.957 313.066Z"/><path d="M246.824 327.408C246.824 332.088 242.301 335.882 236.72 335.882 231.14 335.882 226.616 332.088 226.616 327.408 226.616 322.727 231.14 318.933 236.72 318.933 242.301 318.933 246.824 322.727 246.824 327.408Z" fill="#00FF00"/><path d="M316.574 327.57C316.574 332.251 312.05 336.045 306.47 336.045 300.89 336.045 296.366 332.251 296.366 327.57 296.366 322.89 300.89 319.096 306.47 319.096 312.05 319.096 316.574 322.89 316.574 327.57Z" fill="#00FF00"/></g></g></g><text fill="#3B3838" font-family="Arial Rounded MT Bold,Arial Rounded MT Bold_MSFontService,sans-serif" font-weight="700" font-size="107" transform="translate(406.594 394)">RobotScript</text></g></svg>